<?xml version="1.0" encoding="UTF-8" standalone="no"?>
<!DOCTYPE svg PUBLIC "-//W3C//DTD SVG 1.1//EN"
 "http://www.w3.org/Graphics/SVG/1.1/DTD/svg11.dtd">
<!-- Generated by graphviz version 2.43.0 (0)
 -->
<!-- Title: Ikarus::DirichletValues::basis Pages: 1 -->
<svg width="359pt" height="110pt"
 viewBox="0.00 0.00 359.00 110.00" xmlns="http://www.w3.org/2000/svg" xmlns:xlink="http://www.w3.org/1999/xlink">
<g id="graph0" class="graph" transform="scale(1 1) rotate(0) translate(4 106)">
<title>Ikarus::DirichletValues::basis</title>
<polygon fill="white" stroke="transparent" points="-4,4 -4,-106 355,-106 355,4 -4,4"/>
<!-- Node1 -->
<g id="node1" class="node">
<title>Node1</title>
<g id="a_node1"><a xlink:title=" ">
<polygon fill="#bfbfbf" stroke="black" points="226,-36 226,-66 351,-66 351,-36 226,-36"/>
<text text-anchor="start" x="234" y="-54" font-family="Helvetica,sans-Serif" font-size="10.00">Ikarus::DirichletValues</text>
<text text-anchor="middle" x="288.5" y="-43" font-family="Helvetica,sans-Serif" font-size="10.00">::basis</text>
</a>
</g>
</g>
<!-- Node2 -->
<g id="node2" class="node">
<title>Node2</title>
<g id="a_node2"><a xlink:href="a02295.html#aad6e51cef8441f855748d5397440ae3d" target="_top" xlink:title="Function to evaluate all stored inhomogeneous Dirichlet boundary functions.">
<polygon fill="white" stroke="black" points="0,-60.5 0,-101.5 190,-101.5 190,-60.5 0,-60.5"/>
<text text-anchor="start" x="8" y="-89.5" font-family="Helvetica,sans-Serif" font-size="10.00">Ikarus::DirichletValues</text>
<text text-anchor="start" x="8" y="-78.5" font-family="Helvetica,sans-Serif" font-size="10.00">::evaluateInhomogeneousBoundary</text>
<text text-anchor="middle" x="95" y="-67.5" font-family="Helvetica,sans-Serif" font-size="10.00">Condition</text>
</a>
</g>
</g>
<!-- Node1&#45;&gt;Node2 -->
<g id="edge1" class="edge">
<title>Node1&#45;&gt;Node2</title>
<path fill="none" stroke="midnightblue" d="M215.83,-62.23C207.48,-63.54 198.88,-64.88 190.29,-66.23"/>
<polygon fill="midnightblue" stroke="midnightblue" points="216.52,-65.66 225.85,-60.66 215.43,-58.75 216.52,-65.66"/>
</g>
<!-- Node3 -->
<g id="node3" class="node">
<title>Node3</title>
<g id="a_node3"><a xlink:href="a02295.html#a500e53c07ab01f9bd9eab0752254ed5e" target="_top" xlink:title="Function to evaluate all stored inhomogeneous Dirichlet boundary derivative functions.">
<polygon fill="white" stroke="black" points="0,-0.5 0,-41.5 190,-41.5 190,-0.5 0,-0.5"/>
<text text-anchor="start" x="8" y="-29.5" font-family="Helvetica,sans-Serif" font-size="10.00">Ikarus::DirichletValues</text>
<text text-anchor="start" x="8" y="-18.5" font-family="Helvetica,sans-Serif" font-size="10.00">::evaluateInhomogeneousBoundary</text>
<text text-anchor="middle" x="95" y="-7.5" font-family="Helvetica,sans-Serif" font-size="10.00">ConditionDerivative</text>
</a>
</g>
</g>
<!-- Node1&#45;&gt;Node3 -->
<g id="edge2" class="edge">
<title>Node1&#45;&gt;Node3</title>
<path fill="none" stroke="midnightblue" d="M215.83,-39.77C207.48,-38.46 198.88,-37.12 190.29,-35.77"/>
<polygon fill="midnightblue" stroke="midnightblue" points="215.43,-43.25 225.85,-41.34 216.52,-36.34 215.43,-43.25"/>
</g>
</g>
</svg>
