<?xml version="1.0" encoding="UTF-8" standalone="no"?>
<!DOCTYPE svg PUBLIC "-//W3C//DTD SVG 1.1//EN"
 "http://www.w3.org/Graphics/SVG/1.1/DTD/svg11.dtd">
<!-- Generated by graphviz version 2.43.0 (0)
 -->
<!-- Title: Ikarus::DirichletValues::isConstrained Pages: 1 -->
<svg width="321pt" height="88pt"
 viewBox="0.00 0.00 321.00 88.00" xmlns="http://www.w3.org/2000/svg" xmlns:xlink="http://www.w3.org/1999/xlink">
<g id="graph0" class="graph" transform="scale(1 1) rotate(0) translate(4 84)">
<title>Ikarus::DirichletValues::isConstrained</title>
<polygon fill="white" stroke="transparent" points="-4,4 -4,-84 317,-84 317,4 -4,4"/>
<!-- Node1 -->
<g id="node1" class="node">
<title>Node1</title>
<g id="a_node1"><a xlink:title=" ">
<polygon fill="#bfbfbf" stroke="black" points="188,-24.5 188,-54.5 313,-54.5 313,-24.5 188,-24.5"/>
<text text-anchor="start" x="196" y="-42.5" font-family="Helvetica,sans-Serif" font-size="10.00">Ikarus::DirichletValues</text>
<text text-anchor="middle" x="250.5" y="-31.5" font-family="Helvetica,sans-Serif" font-size="10.00">::isConstrained</text>
</a>
</g>
</g>
<!-- Node2 -->
<g id="node2" class="node">
<title>Node2</title>
<g id="a_node2"><a xlink:href="a00499.html#ga39b6df6adfe4858b13ac71f5830f29f6" target="_top" xlink:title="Register Python bindings for a DirichletValues class.">
<polygon fill="white" stroke="black" points="11.5,-49.5 11.5,-79.5 140.5,-79.5 140.5,-49.5 11.5,-49.5"/>
<text text-anchor="start" x="19.5" y="-67.5" font-family="Helvetica,sans-Serif" font-size="10.00">Ikarus::Python::register</text>
<text text-anchor="middle" x="76" y="-56.5" font-family="Helvetica,sans-Serif" font-size="10.00">DirichletValues</text>
</a>
</g>
</g>
<!-- Node1&#45;&gt;Node2 -->
<g id="edge1" class="edge">
<title>Node1&#45;&gt;Node2</title>
<path fill="none" stroke="midnightblue" d="M177.55,-49.93C165.31,-51.7 152.69,-53.53 140.68,-55.27"/>
<polygon fill="midnightblue" stroke="midnightblue" points="178.32,-53.35 187.71,-48.45 177.31,-46.43 178.32,-53.35"/>
</g>
<!-- Node3 -->
<g id="node3" class="node">
<title>Node3</title>
<g id="a_node3"><a xlink:href="a02295.html#a0cc0d889e5ae8a2684116dafa29b4612" target="_top" xlink:title="Function to write zeros at constrained Dirichlet entries.">
<polygon fill="white" stroke="black" points="0,-0.5 0,-30.5 152,-30.5 152,-0.5 0,-0.5"/>
<text text-anchor="start" x="8" y="-18.5" font-family="Helvetica,sans-Serif" font-size="10.00">Ikarus::DirichletValues</text>
<text text-anchor="middle" x="76" y="-7.5" font-family="Helvetica,sans-Serif" font-size="10.00">::setZeroAtConstrainedDofs</text>
</a>
</g>
</g>
<!-- Node1&#45;&gt;Node3 -->
<g id="edge2" class="edge">
<title>Node1&#45;&gt;Node3</title>
<path fill="none" stroke="midnightblue" d="M177.6,-29.5C169.21,-28.33 160.64,-27.14 152.22,-25.96"/>
<polygon fill="midnightblue" stroke="midnightblue" points="177.32,-32.99 187.71,-30.9 178.29,-26.06 177.32,-32.99"/>
</g>
</g>
</svg>
