<?xml version="1.0" encoding="UTF-8" standalone="no"?>
<!DOCTYPE svg PUBLIC "-//W3C//DTD SVG 1.1//EN"
 "http://www.w3.org/Graphics/SVG/1.1/DTD/svg11.dtd">
<!-- Generated by graphviz version 2.43.0 (0)
 -->
<!-- Title: Ikarus::convertLameConstants Pages: 1 -->
<svg width="373pt" height="88pt"
 viewBox="0.00 0.00 373.00 88.00" xmlns="http://www.w3.org/2000/svg" xmlns:xlink="http://www.w3.org/1999/xlink">
<g id="graph0" class="graph" transform="scale(1 1) rotate(0) translate(4 84)">
<title>Ikarus::convertLameConstants</title>
<polygon fill="white" stroke="transparent" points="-4,4 -4,-84 369,-84 369,4 -4,4"/>
<!-- Node1 -->
<g id="node1" class="node">
<title>Node1</title>
<g id="a_node1"><a xlink:title=" ">
<polygon fill="#bfbfbf" stroke="black" points="201,-30 201,-49 365,-49 365,-30 201,-30"/>
<text text-anchor="middle" x="283" y="-37" font-family="Helvetica,sans-Serif" font-size="10.00">Ikarus::convertLameConstants</text>
</a>
</g>
</g>
<!-- Node2 -->
<g id="node2" class="node">
<title>Node2</title>
<g id="a_node2"><a xlink:href="a00495.html#a32940ef922d090491ffcaa9bf2a44aef" target="_top" xlink:title="Converts Young&#39;s modulus and Poisson&#39;s ratio to Lame&#39;s first parameter and shear modulus.">
<polygon fill="white" stroke="black" points="0,-49.5 0,-79.5 165,-79.5 165,-49.5 0,-49.5"/>
<text text-anchor="start" x="8" y="-67.5" font-family="Helvetica,sans-Serif" font-size="10.00">Ikarus::toLamesFirstParameter</text>
<text text-anchor="middle" x="82.5" y="-56.5" font-family="Helvetica,sans-Serif" font-size="10.00">AndShearModulus</text>
</a>
</g>
</g>
<!-- Node1&#45;&gt;Node2 -->
<g id="edge1" class="edge">
<title>Node1&#45;&gt;Node2</title>
<path fill="none" stroke="midnightblue" d="M196.18,-50.31C185.89,-51.6 175.41,-52.92 165.18,-54.21"/>
<polygon fill="midnightblue" stroke="midnightblue" points="196.91,-53.74 206.39,-49.02 196.03,-46.8 196.91,-53.74"/>
</g>
<!-- Node3 -->
<g id="node3" class="node">
<title>Node3</title>
<g id="a_node3"><a xlink:href="a00495.html#a4161393d679e5ec44806e6e911e26dee" target="_top" xlink:title="Converts Lame&#39;s first parameter and shear modulus to Young&#39;s modulus and Poisson&#39;s ratio.">
<polygon fill="white" stroke="black" points="5,-0.5 5,-30.5 160,-30.5 160,-0.5 5,-0.5"/>
<text text-anchor="start" x="13" y="-18.5" font-family="Helvetica,sans-Serif" font-size="10.00">Ikarus::toYoungsModulusAnd</text>
<text text-anchor="middle" x="82.5" y="-7.5" font-family="Helvetica,sans-Serif" font-size="10.00">PoissonsRatio</text>
</a>
</g>
</g>
<!-- Node1&#45;&gt;Node3 -->
<g id="edge2" class="edge">
<title>Node1&#45;&gt;Node3</title>
<path fill="none" stroke="midnightblue" d="M193.21,-28.76C182.2,-27.43 171.01,-26.08 160.2,-24.77"/>
<polygon fill="midnightblue" stroke="midnightblue" points="192.91,-32.25 203.26,-29.98 193.75,-25.3 192.91,-32.25"/>
</g>
</g>
</svg>
