<?xml version="1.0" encoding="UTF-8" standalone="no"?>
<!DOCTYPE svg PUBLIC "-//W3C//DTD SVG 1.1//EN"
 "http://www.w3.org/Graphics/SVG/1.1/DTD/svg11.dtd">
<!-- Generated by graphviz version 2.43.0 (0)
 -->
<!-- Title: Ikarus::viewAsFlatEigenVector Pages: 1 -->
<svg width="600pt" height="88pt"
 viewBox="0.00 0.00 600.00 88.00" xmlns="http://www.w3.org/2000/svg" xmlns:xlink="http://www.w3.org/1999/xlink">
<g id="graph0" class="graph" transform="scale(1 1) rotate(0) translate(4 84)">
<title>Ikarus::viewAsFlatEigenVector</title>
<polygon fill="white" stroke="transparent" points="-4,4 -4,-84 596,-84 596,4 -4,4"/>
<!-- Node1 -->
<g id="node1" class="node">
<title>Node1</title>
<g id="a_node1"><a xlink:title="View Dune::BlockVector as an Eigen::Vector.">
<polygon fill="#bfbfbf" stroke="black" points="428,-30 428,-49 592,-49 592,-30 428,-30"/>
<text text-anchor="middle" x="510" y="-37" font-family="Helvetica,sans-Serif" font-size="10.00">Ikarus::viewAsFlatEigenVector</text>
</a>
</g>
</g>
<!-- Node2 -->
<g id="node2" class="node">
<title>Node2</title>
<g id="a_node2"><a xlink:href="a01512.html#ab057610e14d491f18570239b444b9add" target="_top" xlink:title="Calculates a requested result at a specific local position using the Enhanced Assumed Strains (EAS) m...">
<polygon fill="white" stroke="black" points="214,-49.5 214,-79.5 392,-79.5 392,-49.5 214,-49.5"/>
<text text-anchor="start" x="222" y="-67.5" font-family="Helvetica,sans-Serif" font-size="10.00">Ikarus::EnhancedAssumedStrains</text>
<text text-anchor="middle" x="303" y="-56.5" font-family="Helvetica,sans-Serif" font-size="10.00">::calculateAtImpl</text>
</a>
</g>
</g>
<!-- Node1&#45;&gt;Node2 -->
<g id="edge1" class="edge">
<title>Node1&#45;&gt;Node2</title>
<path fill="none" stroke="midnightblue" d="M420.72,-50.27C411.25,-51.42 401.61,-52.6 392.15,-53.75"/>
<polygon fill="midnightblue" stroke="midnightblue" points="421.41,-53.71 430.91,-49.02 420.56,-46.76 421.41,-53.71"/>
</g>
<!-- Node3 -->
<g id="node3" class="node">
<title>Node3</title>
<g id="a_node3"><a xlink:href="a01512.html#a0809ecfce3e1f86a8d8f8ba1b34e7c9f" target="_top" xlink:title="Updates the internal state variable alpha_ at the end of an iteration before the update of the displa...">
<polygon fill="white" stroke="black" points="214,-0.5 214,-30.5 392,-30.5 392,-0.5 214,-0.5"/>
<text text-anchor="start" x="222" y="-18.5" font-family="Helvetica,sans-Serif" font-size="10.00">Ikarus::EnhancedAssumedStrains</text>
<text text-anchor="middle" x="303" y="-7.5" font-family="Helvetica,sans-Serif" font-size="10.00">::updateStateImpl</text>
</a>
</g>
</g>
<!-- Node1&#45;&gt;Node3 -->
<g id="edge2" class="edge">
<title>Node1&#45;&gt;Node3</title>
<path fill="none" stroke="midnightblue" d="M417.98,-28.84C409.42,-27.84 400.74,-26.83 392.2,-25.83"/>
<polygon fill="midnightblue" stroke="midnightblue" points="417.64,-32.33 427.98,-30.01 418.45,-25.38 417.64,-32.33"/>
</g>
<!-- Node4 -->
<g id="node4" class="node">
<title>Node4</title>
<g id="a_node4"><a xlink:href="a01512.html#a98e1f23dd3e2ecfae9eff51eb5fcb2d1" target="_top" xlink:title=" ">
<polygon fill="white" stroke="black" points="0,-0.5 0,-30.5 178,-30.5 178,-0.5 0,-0.5"/>
<text text-anchor="start" x="8" y="-18.5" font-family="Helvetica,sans-Serif" font-size="10.00">Ikarus::EnhancedAssumedStrains</text>
<text text-anchor="middle" x="89" y="-7.5" font-family="Helvetica,sans-Serif" font-size="10.00">::subscribeToImpl</text>
</a>
</g>
</g>
<!-- Node3&#45;&gt;Node4 -->
<g id="edge3" class="edge">
<title>Node3&#45;&gt;Node4</title>
<path fill="none" stroke="midnightblue" d="M203.89,-15.5C195.3,-15.5 186.64,-15.5 178.13,-15.5"/>
<polygon fill="midnightblue" stroke="midnightblue" points="203.93,-19 213.93,-15.5 203.93,-12 203.93,-19"/>
</g>
</g>
</svg>
