<?xml version="1.0" encoding="UTF-8" standalone="no"?>
<!DOCTYPE svg PUBLIC "-//W3C//DTD SVG 1.1//EN"
 "http://www.w3.org/Graphics/SVG/1.1/DTD/svg11.dtd">
<!-- Generated by graphviz version 2.43.0 (0)
 -->
<!-- Title: ikarus.finite_elements.registerPreElement Pages: 1 -->
<svg width="597pt" height="356pt"
 viewBox="0.00 0.00 597.00 355.50" xmlns="http://www.w3.org/2000/svg" xmlns:xlink="http://www.w3.org/1999/xlink">
<g id="graph0" class="graph" transform="scale(1 1) rotate(0) translate(4 351.5)">
<title>ikarus.finite_elements.registerPreElement</title>
<polygon fill="white" stroke="transparent" points="-4,4 -4,-351.5 593,-351.5 593,4 -4,4"/>
<!-- Node1 -->
<g id="node1" class="node">
<title>Node1</title>
<g id="a_node1"><a xlink:title=" ">
<polygon fill="#bfbfbf" stroke="black" points="424,-180.5 424,-210.5 589,-210.5 589,-180.5 424,-180.5"/>
<text text-anchor="start" x="432" y="-198.5" font-family="Helvetica,sans-Serif" font-size="10.00">ikarus.finite_elements.register</text>
<text text-anchor="middle" x="506.5" y="-187.5" font-family="Helvetica,sans-Serif" font-size="10.00">PreElement</text>
</a>
</g>
</g>
<!-- Node2 -->
<g id="node2" class="node">
<title>Node2</title>
<g id="a_node2"><a xlink:href="a00475.html#a9b84873b14dcca77459bfeae3c808fb6" target="_top" xlink:title=" ">
<polygon fill="white" stroke="black" points="221.5,-328 221.5,-347 366.5,-347 366.5,-328 221.5,-328"/>
<text text-anchor="middle" x="294" y="-335" font-family="Helvetica,sans-Serif" font-size="10.00">ikarus.finite_elements.eas</text>
</a>
</g>
</g>
<!-- Node1&#45;&gt;Node2 -->
<g id="edge1" class="edge">
<title>Node1&#45;&gt;Node2</title>
<path fill="none" stroke="midnightblue" d="M489.7,-219.32C469.58,-247.65 432.08,-294.14 388,-318.5 380.93,-322.41 373.16,-325.51 365.22,-327.98"/>
<polygon fill="midnightblue" stroke="midnightblue" points="492.78,-221.03 495.61,-210.82 487.03,-217.03 492.78,-221.03"/>
</g>
<!-- Node3 -->
<g id="node3" class="node">
<title>Node3</title>
<g id="a_node3"><a xlink:href="a00475.html#ae49d79d1210e031e9a6d4c0f534678ed" target="_top" xlink:title=" ">
<polygon fill="white" stroke="black" points="209,-278.5 209,-308.5 379,-308.5 379,-278.5 209,-278.5"/>
<text text-anchor="start" x="217" y="-296.5" font-family="Helvetica,sans-Serif" font-size="10.00">ikarus.finite_elements.kirchhoff</text>
<text text-anchor="middle" x="294" y="-285.5" font-family="Helvetica,sans-Serif" font-size="10.00">LoveShell</text>
</a>
</g>
</g>
<!-- Node1&#45;&gt;Node3 -->
<g id="edge2" class="edge">
<title>Node1&#45;&gt;Node3</title>
<path fill="none" stroke="midnightblue" d="M477.52,-216.62C454.54,-233.09 420.58,-255.44 388,-269.5 380.19,-272.87 371.8,-275.85 363.38,-278.46"/>
<polygon fill="midnightblue" stroke="midnightblue" points="479.74,-219.34 485.77,-210.63 475.62,-213.68 479.74,-219.34"/>
</g>
<!-- Node4 -->
<g id="node4" class="node">
<title>Node4</title>
<g id="a_node4"><a xlink:href="a00475.html#a6ad42bf2bf54ce22c621416e0f9a76e3" target="_top" xlink:title=" ">
<polygon fill="white" stroke="black" points="216.5,-229.5 216.5,-259.5 371.5,-259.5 371.5,-229.5 216.5,-229.5"/>
<text text-anchor="start" x="224.5" y="-247.5" font-family="Helvetica,sans-Serif" font-size="10.00">ikarus.finite_elements.linear</text>
<text text-anchor="middle" x="294" y="-236.5" font-family="Helvetica,sans-Serif" font-size="10.00">Elastic</text>
</a>
</g>
</g>
<!-- Node1&#45;&gt;Node4 -->
<g id="edge3" class="edge">
<title>Node1&#45;&gt;Node4</title>
<path fill="none" stroke="midnightblue" d="M431.05,-212.83C407.68,-218.27 382.08,-224.23 359.47,-229.49"/>
<polygon fill="midnightblue" stroke="midnightblue" points="431.97,-216.21 440.91,-210.53 430.38,-209.39 431.97,-216.21"/>
</g>
<!-- Node5 -->
<g id="node5" class="node">
<title>Node5</title>
<g id="a_node5"><a xlink:href="a00475.html#a07118f7df1c877f8ee73cf56f9e1e627" target="_top" xlink:title=" ">
<polygon fill="white" stroke="black" points="207.5,-180.5 207.5,-210.5 380.5,-210.5 380.5,-180.5 207.5,-180.5"/>
<text text-anchor="start" x="215.5" y="-198.5" font-family="Helvetica,sans-Serif" font-size="10.00">ikarus.finite_elements.neumann</text>
<text text-anchor="middle" x="294" y="-187.5" font-family="Helvetica,sans-Serif" font-size="10.00">BoundaryLoad</text>
</a>
</g>
</g>
<!-- Node1&#45;&gt;Node5 -->
<g id="edge4" class="edge">
<title>Node1&#45;&gt;Node5</title>
<path fill="none" stroke="midnightblue" d="M413.48,-195.5C402.63,-195.5 391.58,-195.5 380.82,-195.5"/>
<polygon fill="midnightblue" stroke="midnightblue" points="413.81,-199 423.81,-195.5 413.81,-192 413.81,-199"/>
</g>
<!-- Node6 -->
<g id="node6" class="node">
<title>Node6</title>
<g id="a_node6"><a xlink:href="a00475.html#a5d5a2d652f842c3d179bd1ec9bf5a123" target="_top" xlink:title=" ">
<polygon fill="white" stroke="black" points="221,-131.5 221,-161.5 367,-161.5 367,-131.5 221,-131.5"/>
<text text-anchor="start" x="229" y="-149.5" font-family="Helvetica,sans-Serif" font-size="10.00">ikarus.finite_elements.non</text>
<text text-anchor="middle" x="294" y="-138.5" font-family="Helvetica,sans-Serif" font-size="10.00">LinearElastic</text>
</a>
</g>
</g>
<!-- Node1&#45;&gt;Node6 -->
<g id="edge5" class="edge">
<title>Node1&#45;&gt;Node6</title>
<path fill="none" stroke="midnightblue" d="M431.05,-178.17C407.68,-172.73 382.08,-166.77 359.47,-161.51"/>
<polygon fill="midnightblue" stroke="midnightblue" points="430.38,-181.61 440.91,-180.47 431.97,-174.79 430.38,-181.61"/>
</g>
<!-- Node7 -->
<g id="node7" class="node">
<title>Node7</title>
<g id="a_node7"><a xlink:href="a00475.html#aa6cf67e1d178d21512278829cc870dd2" target="_top" xlink:title=" ">
<polygon fill="white" stroke="black" points="218,-93 218,-112 370,-112 370,-93 218,-93"/>
<text text-anchor="middle" x="294" y="-100" font-family="Helvetica,sans-Serif" font-size="10.00">ikarus.finite_elements.truss</text>
</a>
</g>
</g>
<!-- Node1&#45;&gt;Node7 -->
<g id="edge6" class="edge">
<title>Node1&#45;&gt;Node7</title>
<path fill="none" stroke="midnightblue" d="M477.63,-174.32C454.71,-157.89 420.78,-135.74 388,-122.5 377.43,-118.23 365.81,-114.81 354.46,-112.09"/>
<polygon fill="midnightblue" stroke="midnightblue" points="475.71,-177.25 485.85,-180.31 479.83,-171.6 475.71,-177.25"/>
</g>
<!-- Node8 -->
<g id="node8" class="node">
<title>Node8</title>
<g id="a_node8"><a xlink:href="a00475.html#aebef990fed6a3c9ee196babef4d809ab" target="_top" xlink:title=" ">
<polygon fill="white" stroke="black" points="200,-55 200,-74 388,-74 388,-55 200,-55"/>
<text text-anchor="middle" x="294" y="-62" font-family="Helvetica,sans-Serif" font-size="10.00">ikarus.finite_elements.volumeLoad</text>
</a>
</g>
</g>
<!-- Node1&#45;&gt;Node8 -->
<g id="edge7" class="edge">
<title>Node1&#45;&gt;Node8</title>
<path fill="none" stroke="midnightblue" d="M487.94,-172.26C467.05,-146.37 429.74,-105.31 388,-83.5 380.55,-79.61 372.38,-76.51 364.07,-74.05"/>
<polygon fill="midnightblue" stroke="midnightblue" points="485.43,-174.72 494.37,-180.4 490.92,-170.39 485.43,-174.72"/>
</g>
<!-- Node9 -->
<g id="node9" class="node">
<title>Node9</title>
<g id="a_node9"><a xlink:href="a00475.html#aba3cad6b82a8a02e7d85304cf170bb41" target="_top" xlink:title=" ">
<polygon fill="white" stroke="black" points="0,-98.5 0,-128.5 164,-128.5 164,-98.5 0,-98.5"/>
<text text-anchor="start" x="8" y="-116.5" font-family="Helvetica,sans-Serif" font-size="10.00">ikarus.finite_elements.volume</text>
<text text-anchor="middle" x="82" y="-105.5" font-family="Helvetica,sans-Serif" font-size="10.00">Load1D</text>
</a>
</g>
</g>
<!-- Node8&#45;&gt;Node9 -->
<g id="edge8" class="edge">
<title>Node8&#45;&gt;Node9</title>
<path fill="none" stroke="midnightblue" d="M234.28,-76.04C222.89,-78.41 211.05,-80.96 200,-83.5 180.18,-88.06 158.58,-93.48 139.4,-98.44"/>
<polygon fill="midnightblue" stroke="midnightblue" points="235.06,-79.45 244.15,-74.01 233.65,-72.59 235.06,-79.45"/>
</g>
<!-- Node10 -->
<g id="node10" class="node">
<title>Node10</title>
<g id="a_node10"><a xlink:href="a00475.html#ac843f3dd666115e6f215a803348dc3b6" target="_top" xlink:title=" ">
<polygon fill="white" stroke="black" points="0,-49.5 0,-79.5 164,-79.5 164,-49.5 0,-49.5"/>
<text text-anchor="start" x="8" y="-67.5" font-family="Helvetica,sans-Serif" font-size="10.00">ikarus.finite_elements.volume</text>
<text text-anchor="middle" x="82" y="-56.5" font-family="Helvetica,sans-Serif" font-size="10.00">Load2D</text>
</a>
</g>
</g>
<!-- Node8&#45;&gt;Node10 -->
<g id="edge9" class="edge">
<title>Node8&#45;&gt;Node10</title>
<path fill="none" stroke="midnightblue" d="M189.85,-64.5C181.2,-64.5 172.54,-64.5 164.1,-64.5"/>
<polygon fill="midnightblue" stroke="midnightblue" points="189.97,-68 199.97,-64.5 189.97,-61 189.97,-68"/>
</g>
<!-- Node11 -->
<g id="node11" class="node">
<title>Node11</title>
<g id="a_node11"><a xlink:href="a00475.html#a068cdc2f61f198a0a57e0a4afe14fb6f" target="_top" xlink:title=" ">
<polygon fill="white" stroke="black" points="0,-0.5 0,-30.5 164,-30.5 164,-0.5 0,-0.5"/>
<text text-anchor="start" x="8" y="-18.5" font-family="Helvetica,sans-Serif" font-size="10.00">ikarus.finite_elements.volume</text>
<text text-anchor="middle" x="82" y="-7.5" font-family="Helvetica,sans-Serif" font-size="10.00">Load3D</text>
</a>
</g>
</g>
<!-- Node8&#45;&gt;Node11 -->
<g id="edge10" class="edge">
<title>Node8&#45;&gt;Node11</title>
<path fill="none" stroke="midnightblue" d="M242.51,-52.72C214.02,-46.07 178.12,-37.69 147.59,-30.57"/>
<polygon fill="midnightblue" stroke="midnightblue" points="241.73,-56.13 252.26,-54.99 243.32,-49.31 241.73,-56.13"/>
</g>
</g>
</svg>
