<?xml version="1.0" encoding="UTF-8" standalone="no"?>
<!DOCTYPE svg PUBLIC "-//W3C//DTD SVG 1.1//EN"
 "http://www.w3.org/Graphics/SVG/1.1/DTD/svg11.dtd">
<!-- Generated by graphviz version 2.43.0 (0)
 -->
<!-- Title: Ikarus::utils::find_if Pages: 1 -->
<svg width="489pt" height="104pt"
 viewBox="0.00 0.00 489.00 104.00" xmlns="http://www.w3.org/2000/svg" xmlns:xlink="http://www.w3.org/1999/xlink">
<g id="graph0" class="graph" transform="scale(1 1) rotate(0) translate(4 100)">
<title>Ikarus::utils::find_if</title>
<polygon fill="white" stroke="transparent" points="-4,4 -4,-100 485,-100 485,4 -4,4"/>
<!-- Node1 -->
<g id="node1" class="node">
<title>Node1</title>
<g id="a_node1"><a xlink:title="Finds the index of the first element in the tuple satisfying a predicate.">
<polygon fill="#bfbfbf" stroke="black" points="372,-38.5 372,-57.5 481,-57.5 481,-38.5 372,-38.5"/>
<text text-anchor="middle" x="426.5" y="-45.5" font-family="Helvetica,sans-Serif" font-size="10.00">Ikarus::utils::find_if</text>
</a>
</g>
</g>
<!-- Node2 -->
<g id="node2" class="node">
<title>Node2</title>
<g id="a_node2"><a xlink:href="a00492.html#ga62d8ab565d41e49db75f0641bcdf0740" target="_top" xlink:title="Finds the index of the first element in the tuple that is a specialization of the given template type...">
<polygon fill="white" stroke="black" points="148,-76.5 148,-95.5 336,-95.5 336,-76.5 148,-76.5"/>
<text text-anchor="middle" x="242" y="-83.5" font-family="Helvetica,sans-Serif" font-size="10.00">Ikarus::utils::findTypeSpecialization</text>
</a>
</g>
</g>
<!-- Node1&#45;&gt;Node2 -->
<g id="edge1" class="edge">
<title>Node1&#45;&gt;Node2</title>
<path fill="none" stroke="midnightblue" d="M370.94,-59.65C359.41,-62.1 347.31,-64.65 336,-67 321.16,-70.09 304.97,-73.41 290.33,-76.4"/>
<polygon fill="midnightblue" stroke="midnightblue" points="371.84,-63.04 380.9,-57.54 370.39,-56.19 371.84,-63.04"/>
</g>
<!-- Node3 -->
<g id="node3" class="node">
<title>Node3</title>
<g id="a_node3"><a xlink:href="a00492.html#gaec2a5de0482441ef1e1c68fb7ff8a0bc" target="_top" xlink:title="Checks if a tuple has a specialization of a template type.">
<polygon fill="white" stroke="black" points="148.5,-38.5 148.5,-57.5 335.5,-57.5 335.5,-38.5 148.5,-38.5"/>
<text text-anchor="middle" x="242" y="-45.5" font-family="Helvetica,sans-Serif" font-size="10.00">Ikarus::utils::hasTypeSpecialization</text>
</a>
</g>
</g>
<!-- Node1&#45;&gt;Node3 -->
<g id="edge2" class="edge">
<title>Node1&#45;&gt;Node3</title>
<path fill="none" stroke="midnightblue" d="M361.67,-48C353.27,-48 344.52,-48 335.75,-48"/>
<polygon fill="midnightblue" stroke="midnightblue" points="361.73,-51.5 371.73,-48 361.73,-44.5 361.73,-51.5"/>
</g>
<!-- Node4 -->
<g id="node4" class="node">
<title>Node4</title>
<g id="a_node4"><a xlink:href="a00492.html#ga33284bcf99d7d3870e0aff06f6651aa2" target="_top" xlink:title="Checks if none of the elements in the tuple satisfy a given predicate.">
<polygon fill="white" stroke="black" points="183,-0.5 183,-19.5 301,-19.5 301,-0.5 183,-0.5"/>
<text text-anchor="middle" x="242" y="-7.5" font-family="Helvetica,sans-Serif" font-size="10.00">Ikarus::utils::none_of</text>
</a>
</g>
</g>
<!-- Node1&#45;&gt;Node4 -->
<g id="edge3" class="edge">
<title>Node1&#45;&gt;Node4</title>
<path fill="none" stroke="midnightblue" d="M370.94,-36.35C359.41,-33.9 347.31,-31.35 336,-29 321.16,-25.91 304.97,-22.59 290.33,-19.6"/>
<polygon fill="midnightblue" stroke="midnightblue" points="370.39,-39.81 380.9,-38.46 371.84,-32.96 370.39,-39.81"/>
</g>
<!-- Node5 -->
<g id="node5" class="node">
<title>Node5</title>
<g id="a_node5"><a xlink:href="a00492.html#gab6d955a70ec9215ae9a8f3841582ab49" target="_top" xlink:title="Checks if any of the elements in the tuple satisfy a given predicate.">
<polygon fill="white" stroke="black" points="0,-0.5 0,-19.5 112,-19.5 112,-0.5 0,-0.5"/>
<text text-anchor="middle" x="56" y="-7.5" font-family="Helvetica,sans-Serif" font-size="10.00">Ikarus::utils::any_of</text>
</a>
</g>
</g>
<!-- Node4&#45;&gt;Node5 -->
<g id="edge4" class="edge">
<title>Node4&#45;&gt;Node5</title>
<path fill="none" stroke="midnightblue" d="M172.51,-10C152.56,-10 131.03,-10 112.02,-10"/>
<polygon fill="midnightblue" stroke="midnightblue" points="172.78,-13.5 182.78,-10 172.78,-6.5 172.78,-13.5"/>
</g>
</g>
</svg>
