<?xml version="1.0" encoding="UTF-8" standalone="no"?>
<!DOCTYPE svg PUBLIC "-//W3C//DTD SVG 1.1//EN"
 "http://www.w3.org/Graphics/SVG/1.1/DTD/svg11.dtd">
<!-- Generated by graphviz version 2.43.0 (0)
 -->
<!-- Title: Ikarus::toString Pages: 1 -->
<svg width="489pt" height="421pt"
 viewBox="0.00 0.00 489.00 420.50" xmlns="http://www.w3.org/2000/svg" xmlns:xlink="http://www.w3.org/1999/xlink">
<g id="graph0" class="graph" transform="scale(1 1) rotate(0) translate(4 416.5)">
<title>Ikarus::toString</title>
<polygon fill="white" stroke="transparent" points="-4,4 -4,-416.5 485,-416.5 485,4 -4,4"/>
<!-- Node1 -->
<g id="node1" class="node">
<title>Node1</title>
<g id="a_node1"><a xlink:title=" ">
<polygon fill="#bfbfbf" stroke="black" points="391,-191.5 391,-210.5 481,-210.5 481,-191.5 391,-191.5"/>
<text text-anchor="middle" x="436" y="-198.5" font-family="Helvetica,sans-Serif" font-size="10.00">Ikarus::toString</text>
</a>
</g>
</g>
<!-- Node2 -->
<g id="node2" class="node">
<title>Node2</title>
<g id="a_node2"><a xlink:href="a01526.html#a71e905f315ca4efee16150b0c43fbabe" target="_top" xlink:title=" ">
<polygon fill="white" stroke="black" points="194.5,-382 194.5,-412 337.5,-412 337.5,-382 194.5,-382"/>
<text text-anchor="start" x="202.5" y="-400" font-family="Helvetica,sans-Serif" font-size="10.00">Ikarus::KirchhoffLoveShell</text>
<text text-anchor="middle" x="266" y="-389" font-family="Helvetica,sans-Serif" font-size="10.00">::calculateMatrixImpl</text>
</a>
</g>
</g>
<!-- Node1&#45;&gt;Node2 -->
<g id="edge1" class="edge">
<title>Node1&#45;&gt;Node2</title>
<path fill="none" stroke="midnightblue" d="M431.48,-220.62C424.01,-256.42 403.15,-332.37 355,-373 349.8,-377.39 343.86,-380.98 337.58,-383.92"/>
<polygon fill="midnightblue" stroke="midnightblue" points="434.97,-220.99 433.45,-210.51 428.1,-219.65 434.97,-220.99"/>
</g>
<!-- Node3 -->
<g id="node3" class="node">
<title>Node3</title>
<g id="a_node3"><a xlink:href="a01518.html#a08ac9f80b640ba2532d0955df76832ed" target="_top" xlink:title=" ">
<polygon fill="white" stroke="black" points="177,-333 177,-363 355,-363 355,-333 177,-333"/>
<text text-anchor="start" x="185" y="-351" font-family="Helvetica,sans-Serif" font-size="10.00">Ikarus::EnhancedAssumedStrains</text>
<text text-anchor="middle" x="266" y="-340" font-family="Helvetica,sans-Serif" font-size="10.00">::calculateMatrixImpl</text>
</a>
</g>
</g>
<!-- Node1&#45;&gt;Node3 -->
<g id="edge2" class="edge">
<title>Node1&#45;&gt;Node3</title>
<path fill="none" stroke="midnightblue" d="M427.68,-220.3C416.33,-247.58 391.88,-297.1 355,-324 350.27,-327.45 345.06,-330.41 339.62,-332.94"/>
<polygon fill="midnightblue" stroke="midnightblue" points="431.05,-221.3 431.51,-210.71 424.55,-218.71 431.05,-221.3"/>
</g>
<!-- Node4 -->
<g id="node4" class="node">
<title>Node4</title>
<g id="a_node4"><a xlink:href="a01526.html#ac901c3457b487e52ca4c40ccfb1e69a6" target="_top" xlink:title=" ">
<polygon fill="white" stroke="black" points="194.5,-284 194.5,-314 337.5,-314 337.5,-284 194.5,-284"/>
<text text-anchor="start" x="202.5" y="-302" font-family="Helvetica,sans-Serif" font-size="10.00">Ikarus::KirchhoffLoveShell</text>
<text text-anchor="middle" x="266" y="-291" font-family="Helvetica,sans-Serif" font-size="10.00">::calculateScalarImpl</text>
</a>
</g>
</g>
<!-- Node1&#45;&gt;Node4 -->
<g id="edge3" class="edge">
<title>Node1&#45;&gt;Node4</title>
<path fill="none" stroke="midnightblue" d="M420.41,-218.73C405.61,-235.59 381.21,-260.47 355,-275 348.91,-278.38 342.31,-281.31 335.56,-283.84"/>
<polygon fill="midnightblue" stroke="midnightblue" points="423.4,-220.62 427.23,-210.74 418.07,-216.08 423.4,-220.62"/>
</g>
<!-- Node5 -->
<g id="node5" class="node">
<title>Node5</title>
<g id="a_node5"><a xlink:href="a01526.html#a14aa1287417c41d90c1f9cad4738cc93" target="_top" xlink:title=" ">
<polygon fill="white" stroke="black" points="194.5,-235 194.5,-265 337.5,-265 337.5,-235 194.5,-235"/>
<text text-anchor="start" x="202.5" y="-253" font-family="Helvetica,sans-Serif" font-size="10.00">Ikarus::KirchhoffLoveShell</text>
<text text-anchor="middle" x="266" y="-242" font-family="Helvetica,sans-Serif" font-size="10.00">::calculateVectorImpl</text>
</a>
</g>
</g>
<!-- Node1&#45;&gt;Node5 -->
<g id="edge4" class="edge">
<title>Node1&#45;&gt;Node5</title>
<path fill="none" stroke="midnightblue" d="M395.87,-213.54C382.9,-217.62 368.36,-222.09 355,-226 344.82,-228.98 333.94,-232.04 323.42,-234.94"/>
<polygon fill="midnightblue" stroke="midnightblue" points="396.96,-216.87 405.44,-210.52 394.85,-210.19 396.96,-216.87"/>
</g>
<!-- Node6 -->
<g id="node6" class="node">
<title>Node6</title>
<g id="a_node6"><a xlink:href="a01518.html#a5bee71e9e1b6c0f997f0af1f6bb979eb" target="_top" xlink:title=" ">
<polygon fill="white" stroke="black" points="177,-186 177,-216 355,-216 355,-186 177,-186"/>
<text text-anchor="start" x="185" y="-204" font-family="Helvetica,sans-Serif" font-size="10.00">Ikarus::EnhancedAssumedStrains</text>
<text text-anchor="middle" x="266" y="-193" font-family="Helvetica,sans-Serif" font-size="10.00">::calculateVectorImpl</text>
</a>
</g>
</g>
<!-- Node1&#45;&gt;Node6 -->
<g id="edge5" class="edge">
<title>Node1&#45;&gt;Node6</title>
<path fill="none" stroke="midnightblue" d="M380.7,-201C372.47,-201 363.81,-201 355.08,-201"/>
<polygon fill="midnightblue" stroke="midnightblue" points="380.86,-204.5 390.86,-201 380.86,-197.5 380.86,-204.5"/>
</g>
<!-- Node7 -->
<g id="node7" class="node">
<title>Node7</title>
<g id="a_node7"><a xlink:href="a01598.html#af415cd72d105db7efb92a77286c3ed61" target="_top" xlink:title=" ">
<polygon fill="white" stroke="black" points="214,-137 214,-167 318,-167 318,-137 214,-137"/>
<text text-anchor="start" x="222" y="-155" font-family="Helvetica,sans-Serif" font-size="10.00">Ikarus::Materials::</text>
<text text-anchor="middle" x="266" y="-144" font-family="Helvetica,sans-Serif" font-size="10.00">OgdenT::name</text>
</a>
</g>
</g>
<!-- Node1&#45;&gt;Node7 -->
<g id="edge6" class="edge">
<title>Node1&#45;&gt;Node7</title>
<path fill="none" stroke="midnightblue" d="M393.82,-188.52C381.36,-184.78 367.63,-180.69 355,-177 343.11,-173.53 330.29,-169.85 318.22,-166.42"/>
<polygon fill="midnightblue" stroke="midnightblue" points="392.91,-191.9 403.49,-191.43 394.93,-185.2 392.91,-191.9"/>
</g>
<!-- Node8 -->
<g id="node8" class="node">
<title>Node8</title>
<g id="a_node8"><a xlink:href="a00483.html#a0c58c17676c73945cb11eff8a80309ae" target="_top" xlink:title="Registers the calculateAt method for a finite element class in Python.">
<polygon fill="white" stroke="black" points="201.5,-88 201.5,-118 330.5,-118 330.5,-88 201.5,-88"/>
<text text-anchor="start" x="209.5" y="-106" font-family="Helvetica,sans-Serif" font-size="10.00">Ikarus::Python::register</text>
<text text-anchor="middle" x="266" y="-95" font-family="Helvetica,sans-Serif" font-size="10.00">CalculateAt</text>
</a>
</g>
</g>
<!-- Node1&#45;&gt;Node8 -->
<g id="edge7" class="edge">
<title>Node1&#45;&gt;Node8</title>
<path fill="none" stroke="midnightblue" d="M420.32,-183.58C405.46,-167 381.02,-142.49 355,-128 347.51,-123.83 339.26,-120.3 330.91,-117.34"/>
<polygon fill="midnightblue" stroke="midnightblue" points="417.97,-186.2 427.18,-191.43 423.24,-181.59 417.97,-186.2"/>
</g>
<!-- Node10 -->
<g id="node10" class="node">
<title>Node10</title>
<g id="a_node10"><a xlink:href="a00457.html#ga9f62f91fc33b1f9e17756c2ac7b30077" target="_top" xlink:title="Register Python bindings for a VtkWriter class. &#160;.">
<polygon fill="white" stroke="black" points="201.5,-39 201.5,-69 330.5,-69 330.5,-39 201.5,-39"/>
<text text-anchor="start" x="209.5" y="-57" font-family="Helvetica,sans-Serif" font-size="10.00">Ikarus::Python::register</text>
<text text-anchor="middle" x="266" y="-46" font-family="Helvetica,sans-Serif" font-size="10.00">VtkWriter</text>
</a>
</g>
</g>
<!-- Node1&#45;&gt;Node10 -->
<g id="edge9" class="edge">
<title>Node1&#45;&gt;Node10</title>
<path fill="none" stroke="midnightblue" d="M427.6,-181.91C416.15,-154.91 391.58,-105.87 355,-79 347.7,-73.64 339.29,-69.43 330.63,-66.12"/>
<polygon fill="midnightblue" stroke="midnightblue" points="424.45,-183.45 431.46,-191.39 430.93,-180.81 424.45,-183.45"/>
</g>
<!-- Node11 -->
<g id="node11" class="node">
<title>Node11</title>
<g id="a_node11"><a xlink:href="a00465.html#ae9c1868f27f4754a448edbbc97b9a2f2" target="_top" xlink:title="Retrieves a string representation of the ResultType template.">
<polygon fill="white" stroke="black" points="221,-0.5 221,-19.5 311,-19.5 311,-0.5 221,-0.5"/>
<text text-anchor="middle" x="266" y="-7.5" font-family="Helvetica,sans-Serif" font-size="10.00">Ikarus::toString</text>
</a>
</g>
</g>
<!-- Node1&#45;&gt;Node11 -->
<g id="edge10" class="edge">
<title>Node1&#45;&gt;Node11</title>
<path fill="none" stroke="midnightblue" d="M431.61,-181.29C424.35,-145.37 403.82,-69.34 355,-30 342.68,-20.07 326.38,-14.86 311.17,-12.2"/>
<polygon fill="midnightblue" stroke="midnightblue" points="428.23,-182.27 433.52,-191.45 435.11,-180.97 428.23,-182.27"/>
</g>
<!-- Node9 -->
<g id="node9" class="node">
<title>Node9</title>
<g id="a_node9"><a xlink:href="a00457.html#gac8bb4a818dee7342efbc5e174e35b840" target="_top" xlink:title="Register Python bindings for the FE class.">
<polygon fill="white" stroke="black" points="0,-93.5 0,-112.5 141,-112.5 141,-93.5 0,-93.5"/>
<text text-anchor="middle" x="70.5" y="-100.5" font-family="Helvetica,sans-Serif" font-size="10.00">Ikarus::Python::registerFE</text>
</a>
</g>
</g>
<!-- Node8&#45;&gt;Node9 -->
<g id="edge8" class="edge">
<title>Node8&#45;&gt;Node9</title>
<path fill="none" stroke="midnightblue" d="M191.27,-103C174.83,-103 157.45,-103 141.17,-103"/>
<polygon fill="midnightblue" stroke="midnightblue" points="191.37,-106.5 201.37,-103 191.37,-99.5 191.37,-106.5"/>
</g>
</g>
</svg>
