<?xml version="1.0" encoding="UTF-8" standalone="no"?>
<!DOCTYPE svg PUBLIC "-//W3C//DTD SVG 1.1//EN"
 "http://www.w3.org/Graphics/SVG/1.1/DTD/svg11.dtd">
<!-- Generated by graphviz version 2.43.0 (0)
 -->
<!-- Title: Ikarus::utils::forEachLagrangeNodePosition Pages: 1 -->
<svg width="360pt" height="88pt"
 viewBox="0.00 0.00 360.00 88.00" xmlns="http://www.w3.org/2000/svg" xmlns:xlink="http://www.w3.org/1999/xlink">
<g id="graph0" class="graph" transform="scale(1 1) rotate(0) translate(4 84)">
<title>Ikarus::utils::forEachLagrangeNodePosition</title>
<polygon fill="white" stroke="transparent" points="-4,4 -4,-84 356,-84 356,4 -4,4"/>
<!-- Node1 -->
<g id="node1" class="node">
<title>Node1</title>
<g id="a_node1"><a xlink:title="A helper function that helps in traversing over the local coordinates of an element and call a user&#45;d...">
<polygon fill="#bfbfbf" stroke="black" points="191,-24.5 191,-54.5 352,-54.5 352,-24.5 191,-24.5"/>
<text text-anchor="start" x="199" y="-42.5" font-family="Helvetica,sans-Serif" font-size="10.00">Ikarus::utils::forEachLagrange</text>
<text text-anchor="middle" x="271.5" y="-31.5" font-family="Helvetica,sans-Serif" font-size="10.00">NodePosition</text>
</a>
</g>
</g>
<!-- Node2 -->
<g id="node2" class="node">
<title>Node2</title>
<g id="a_node2"><a xlink:href="a00502.html#gad3d42db776c355317260011c95b0ce67" target="_top" xlink:title="A helper function to obtain the global index from the global positions for a Lagrange node.">
<polygon fill="white" stroke="black" points="9.5,-49.5 9.5,-79.5 145.5,-79.5 145.5,-49.5 9.5,-49.5"/>
<text text-anchor="start" x="17.5" y="-67.5" font-family="Helvetica,sans-Serif" font-size="10.00">Ikarus::utils::globalIndex</text>
<text text-anchor="middle" x="77.5" y="-56.5" font-family="Helvetica,sans-Serif" font-size="10.00">FromGlobalPosition</text>
</a>
</g>
</g>
<!-- Node1&#45;&gt;Node2 -->
<g id="edge1" class="edge">
<title>Node1&#45;&gt;Node2</title>
<path fill="none" stroke="midnightblue" d="M180.81,-51.18C168.93,-52.73 156.92,-54.29 145.51,-55.78"/>
<polygon fill="midnightblue" stroke="midnightblue" points="181.28,-54.65 190.74,-49.89 180.37,-47.71 181.28,-54.65"/>
</g>
<!-- Node3 -->
<g id="node3" class="node">
<title>Node3</title>
<g id="a_node3"><a xlink:href="a00502.html#gae9098182120929a0d21cff1c38f5ca84" target="_top" xlink:title="A function to obtain the global positions of the nodes of an element with Lagrangian basis.">
<polygon fill="white" stroke="black" points="0,-0.5 0,-30.5 155,-30.5 155,-0.5 0,-0.5"/>
<text text-anchor="start" x="8" y="-18.5" font-family="Helvetica,sans-Serif" font-size="10.00">Ikarus::utils::obtainLagrange</text>
<text text-anchor="middle" x="77.5" y="-7.5" font-family="Helvetica,sans-Serif" font-size="10.00">GlobalNodePositions</text>
</a>
</g>
</g>
<!-- Node1&#45;&gt;Node3 -->
<g id="edge2" class="edge">
<title>Node1&#45;&gt;Node3</title>
<path fill="none" stroke="midnightblue" d="M180.77,-28.28C172.23,-27.22 163.63,-26.14 155.23,-25.09"/>
<polygon fill="midnightblue" stroke="midnightblue" points="180.39,-31.76 190.74,-29.53 181.25,-24.82 180.39,-31.76"/>
</g>
</g>
</svg>
