<?xml version="1.0" encoding="UTF-8" standalone="no"?>
<!DOCTYPE svg PUBLIC "-//W3C//DTD SVG 1.1//EN"
 "http://www.w3.org/Graphics/SVG/1.1/DTD/svg11.dtd">
<!-- Generated by graphviz version 2.43.0 (0)
 -->
<!-- Title: Ikarus::MatrixAssembler&lt; MA, FEC, DV, MT &gt; Pages: 1 -->
<svg width="645pt" height="132pt"
 viewBox="0.00 0.00 645.00 132.00" xmlns="http://www.w3.org/2000/svg" xmlns:xlink="http://www.w3.org/1999/xlink">
<g id="graph0" class="graph" transform="scale(1 1) rotate(0) translate(4 128)">
<title>Ikarus::MatrixAssembler&lt; MA, FEC, DV, MT &gt;</title>
<polygon fill="white" stroke="transparent" points="-4,4 -4,-128 641,-128 641,4 -4,4"/>
<!-- Node1 -->
<g id="node1" class="node">
<title>Node1</title>
<g id="a_node1"><a xlink:title="The MatrixAssembler provides an interface for an assembler that assembles matrix quantities.">
<polygon fill="#bfbfbf" stroke="black" points="0,-46.5 0,-76.5 135,-76.5 135,-46.5 0,-46.5"/>
<text text-anchor="start" x="8" y="-64.5" font-family="Helvetica,sans-Serif" font-size="10.00">Ikarus::MatrixAssembler</text>
<text text-anchor="middle" x="67.5" y="-53.5" font-family="Helvetica,sans-Serif" font-size="10.00">&lt; MA, FEC, DV, MT &gt;</text>
</a>
</g>
</g>
<!-- Node2 -->
<g id="node2" class="node">
<title>Node2</title>
<g id="a_node2"><a xlink:href="a01309.html" target="_top" xlink:title=" ">
<polygon fill="white" stroke="black" points="293,-71.5 293,-123.5 441,-123.5 441,-71.5 293,-71.5"/>
<text text-anchor="start" x="301" y="-111.5" font-family="Helvetica,sans-Serif" font-size="10.00">Ikarus::MatrixAssembler</text>
<text text-anchor="start" x="301" y="-100.5" font-family="Helvetica,sans-Serif" font-size="10.00">&lt; DenseFlatAssembler&lt;</text>
<text text-anchor="start" x="301" y="-89.5" font-family="Helvetica,sans-Serif" font-size="10.00"> FEC, DV &gt;, FEC, DV, Eigen</text>
<text text-anchor="middle" x="367" y="-78.5" font-family="Helvetica,sans-Serif" font-size="10.00">::MatrixXd &gt;</text>
</a>
</g>
</g>
<!-- Node1&#45;&gt;Node2 -->
<g id="edge1" class="edge">
<title>Node1&#45;&gt;Node2</title>
<path fill="none" stroke="orange" stroke-dasharray="5,2" d="M145.36,-73.48C147.94,-73.83 150.49,-74.17 153,-74.5 199.47,-80.58 251.79,-86.25 292.95,-90.43"/>
<polygon fill="orange" stroke="orange" points="145.73,-69.99 135.34,-72.07 144.76,-76.93 145.73,-69.99"/>
<text text-anchor="start" x="154" y="-112.5" font-family="Helvetica,sans-Serif" font-size="10.00"> &lt; DenseFlatAssembler</text>
<text text-anchor="start" x="154" y="-101.5" font-family="Helvetica,sans-Serif" font-size="10.00">&lt; FEC, DV &gt;, FEC, DV,</text>
<text text-anchor="middle" x="212" y="-90.5" font-family="Helvetica,sans-Serif" font-size="10.00"> Eigen::MatrixXd &gt;</text>
</g>
<!-- Node4 -->
<g id="node4" class="node">
<title>Node4</title>
<g id="a_node4"><a xlink:href="a01309.html" target="_top" xlink:title=" ">
<polygon fill="white" stroke="black" points="289,-0.5 289,-52.5 445,-52.5 445,-0.5 289,-0.5"/>
<text text-anchor="start" x="297" y="-40.5" font-family="Helvetica,sans-Serif" font-size="10.00">Ikarus::MatrixAssembler</text>
<text text-anchor="start" x="297" y="-29.5" font-family="Helvetica,sans-Serif" font-size="10.00">&lt; SparseFlatAssembler</text>
<text text-anchor="start" x="297" y="-18.5" font-family="Helvetica,sans-Serif" font-size="10.00">&lt; FEC, DV &gt;, FEC, DV, Eigen</text>
<text text-anchor="middle" x="367" y="-7.5" font-family="Helvetica,sans-Serif" font-size="10.00">::SparseMatrix&lt; double &gt; &gt;</text>
</a>
</g>
</g>
<!-- Node1&#45;&gt;Node4 -->
<g id="edge3" class="edge">
<title>Node1&#45;&gt;Node4</title>
<path fill="none" stroke="orange" stroke-dasharray="5,2" d="M110.82,-42.85C124.07,-37.87 138.91,-33.14 153,-30.5 197.53,-22.16 248.22,-20.88 288.97,-21.82"/>
<polygon fill="orange" stroke="orange" points="109.53,-39.6 101.49,-46.49 112.08,-46.12 109.53,-39.6"/>
<text text-anchor="start" x="153" y="-66.5" font-family="Helvetica,sans-Serif" font-size="10.00"> &lt; SparseFlatAssembler</text>
<text text-anchor="start" x="153" y="-55.5" font-family="Helvetica,sans-Serif" font-size="10.00">&lt; FEC, DV &gt;, FEC, DV,</text>
<text text-anchor="start" x="153" y="-44.5" font-family="Helvetica,sans-Serif" font-size="10.00"> Eigen::SparseMatrix&lt;</text>
<text text-anchor="middle" x="212" y="-33.5" font-family="Helvetica,sans-Serif" font-size="10.00"> double &gt; &gt;</text>
</g>
<!-- Node3 -->
<g id="node3" class="node">
<title>Node3</title>
<g id="a_node3"><a xlink:href="a01325.html" target="_top" xlink:title="DenseFlatAssembler assembles matrix quantities using a flat basis Indexing strategy....">
<polygon fill="white" stroke="black" points="483,-82.5 483,-112.5 636,-112.5 636,-82.5 483,-82.5"/>
<text text-anchor="start" x="491" y="-100.5" font-family="Helvetica,sans-Serif" font-size="10.00">Ikarus::DenseFlatAssembler</text>
<text text-anchor="middle" x="559.5" y="-89.5" font-family="Helvetica,sans-Serif" font-size="10.00">&lt; FEC, DV &gt;</text>
</a>
</g>
</g>
<!-- Node2&#45;&gt;Node3 -->
<g id="edge2" class="edge">
<title>Node2&#45;&gt;Node3</title>
<path fill="none" stroke="midnightblue" d="M451.11,-97.5C461.63,-97.5 472.35,-97.5 482.75,-97.5"/>
<polygon fill="midnightblue" stroke="midnightblue" points="451.11,-94 441.11,-97.5 451.11,-101 451.11,-94"/>
</g>
<!-- Node5 -->
<g id="node5" class="node">
<title>Node5</title>
<g id="a_node5"><a xlink:href="a01321.html" target="_top" xlink:title="SparseFlatAssembler assembles matrix quantities using a flat basis Indexing strategy....">
<polygon fill="white" stroke="black" points="482,-11.5 482,-41.5 637,-41.5 637,-11.5 482,-11.5"/>
<text text-anchor="start" x="490" y="-29.5" font-family="Helvetica,sans-Serif" font-size="10.00">Ikarus::SparseFlatAssembler</text>
<text text-anchor="middle" x="559.5" y="-18.5" font-family="Helvetica,sans-Serif" font-size="10.00">&lt; FEC, DV &gt;</text>
</a>
</g>
</g>
<!-- Node4&#45;&gt;Node5 -->
<g id="edge4" class="edge">
<title>Node4&#45;&gt;Node5</title>
<path fill="none" stroke="midnightblue" d="M455.47,-26.5C464.26,-26.5 473.13,-26.5 481.8,-26.5"/>
<polygon fill="midnightblue" stroke="midnightblue" points="455.21,-23 445.21,-26.5 455.21,-30 455.21,-23"/>
</g>
</g>
</svg>
