<?xml version="1.0" encoding="UTF-8" standalone="no"?>
<!DOCTYPE svg PUBLIC "-//W3C//DTD SVG 1.1//EN"
 "http://www.w3.org/Graphics/SVG/1.1/DTD/svg11.dtd">
<!-- Generated by graphviz version 2.43.0 (0)
 -->
<!-- Title: Ikarus::FE&lt; PreFE, Skills &gt; Pages: 1 -->
<svg width="1048pt" height="192pt"
 viewBox="0.00 0.00 1048.00 192.00" xmlns="http://www.w3.org/2000/svg" xmlns:xlink="http://www.w3.org/1999/xlink">
<g id="graph0" class="graph" transform="scale(1 1) rotate(0) translate(4 188)">
<title>Ikarus::FE&lt; PreFE, Skills &gt;</title>
<polygon fill="white" stroke="transparent" points="-4,4 -4,-188 1044,-188 1044,4 -4,4"/>
<!-- Node1 -->
<g id="node1" class="node">
<title>Node1</title>
<g id="a_node1"><a xlink:title="FE class is a base class for all finite elements.">
<polygon fill="#bfbfbf" stroke="black" points="934,-109 934,-139 1040,-139 1040,-109 934,-109"/>
<text text-anchor="start" x="942" y="-127" font-family="Helvetica,sans-Serif" font-size="10.00">Ikarus::FE&lt; PreFE,</text>
<text text-anchor="middle" x="987" y="-116" font-family="Helvetica,sans-Serif" font-size="10.00"> Skills &gt;</text>
</a>
</g>
</g>
<!-- Node2 -->
<g id="node2" class="node">
<title>Node2</title>
<g id="a_node2"><a xlink:title=" ">
<polygon fill="white" stroke="black" points="721,-144 721,-174 897,-174 897,-144 721,-144"/>
<text text-anchor="start" x="729" y="-162" font-family="Helvetica,sans-Serif" font-size="10.00">Ikarus::Impl::FEInit</text>
<text text-anchor="middle" x="809" y="-151" font-family="Helvetica,sans-Serif" font-size="10.00">&lt; PreFE, FE&lt; PreFE, Skills... &gt; &gt;</text>
</a>
</g>
</g>
<!-- Node2&#45;&gt;Node1 -->
<g id="edge1" class="edge">
<title>Node2&#45;&gt;Node1</title>
<path fill="none" stroke="#8b1a1a" d="M895.59,-141.98C908.62,-139.39 921.72,-136.78 933.75,-134.39"/>
<polygon fill="#8b1a1a" stroke="#8b1a1a" points="894.79,-138.57 885.66,-143.95 896.15,-145.44 894.79,-138.57"/>
</g>
<!-- Node3 -->
<g id="node3" class="node">
<title>Node3</title>
<g id="a_node3"><a xlink:title=" ">
<polygon fill="white" stroke="black" points="462,-149 462,-179 569,-179 569,-149 462,-149"/>
<text text-anchor="start" x="470" y="-167" font-family="Helvetica,sans-Serif" font-size="10.00">Ikarus::Impl::FEInit</text>
<text text-anchor="middle" x="515.5" y="-156" font-family="Helvetica,sans-Serif" font-size="10.00">&lt; PreFE, FE &gt;</text>
</a>
</g>
</g>
<!-- Node3&#45;&gt;Node2 -->
<g id="edge2" class="edge">
<title>Node3&#45;&gt;Node2</title>
<path fill="none" stroke="orange" stroke-dasharray="5,2" d="M579.48,-162.92C620.76,-162.21 675.28,-161.28 720.72,-160.5"/>
<polygon fill="orange" stroke="orange" points="579.23,-159.42 569.29,-163.09 579.35,-166.42 579.23,-159.42"/>
<text text-anchor="start" x="600" y="-176" font-family="Helvetica,sans-Serif" font-size="10.00"> &lt; PreFE, FE&lt; PreFE,</text>
<text text-anchor="middle" x="651.5" y="-165" font-family="Helvetica,sans-Serif" font-size="10.00"> Skills... &gt; &gt;</text>
</g>
<!-- Node4 -->
<g id="node4" class="node">
<title>Node4</title>
<g id="a_node4"><a xlink:href="a01720.html" target="_top" xlink:title=" ">
<polygon fill="white" stroke="black" points="742.5,-85 742.5,-115 875.5,-115 875.5,-85 742.5,-85"/>
<text text-anchor="start" x="750.5" y="-103" font-family="Helvetica,sans-Serif" font-size="10.00">Ikarus::FEMixin&lt; PreFE,</text>
<text text-anchor="middle" x="809" y="-92" font-family="Helvetica,sans-Serif" font-size="10.00"> Skills... &gt;</text>
</a>
</g>
</g>
<!-- Node4&#45;&gt;Node1 -->
<g id="edge3" class="edge">
<title>Node4&#45;&gt;Node1</title>
<path fill="none" stroke="midnightblue" d="M885.58,-110.31C901.86,-112.53 918.72,-114.83 933.88,-116.89"/>
<polygon fill="midnightblue" stroke="midnightblue" points="885.92,-106.82 875.54,-108.94 884.97,-113.76 885.92,-106.82"/>
</g>
<!-- Node5 -->
<g id="node5" class="node">
<title>Node5</title>
<g id="a_node5"><a xlink:href="a02084.html" target="_top" xlink:title=" ">
<polygon fill="white" stroke="black" points="306,-109.5 306,-128.5 397,-128.5 397,-109.5 306,-109.5"/>
<text text-anchor="middle" x="351.5" y="-116.5" font-family="Helvetica,sans-Serif" font-size="10.00">Ikarus::Listener</text>
</a>
</g>
</g>
<!-- Node5&#45;&gt;Node4 -->
<g id="edge4" class="edge">
<title>Node5&#45;&gt;Node4</title>
<path fill="none" stroke="midnightblue" d="M407.24,-116.94C476.21,-114.32 598.4,-109.58 703,-105 715.76,-104.44 729.4,-103.81 742.47,-103.2"/>
<polygon fill="midnightblue" stroke="midnightblue" points="406.9,-113.45 397.04,-117.33 407.17,-120.45 406.9,-113.45"/>
</g>
<!-- Node7 -->
<g id="node7" class="node">
<title>Node7</title>
<g id="a_node7"><a xlink:href="a01720.html" target="_top" xlink:title="CRTP mixin class for finite elements with additional skills.">
<polygon fill="white" stroke="black" points="449,-61 449,-91 582,-91 582,-61 449,-61"/>
<text text-anchor="start" x="457" y="-79" font-family="Helvetica,sans-Serif" font-size="10.00">Ikarus::FEMixin&lt; PreFE,</text>
<text text-anchor="middle" x="515.5" y="-68" font-family="Helvetica,sans-Serif" font-size="10.00"> Skills &gt;</text>
</a>
</g>
</g>
<!-- Node5&#45;&gt;Node7 -->
<g id="edge7" class="edge">
<title>Node5&#45;&gt;Node7</title>
<path fill="none" stroke="midnightblue" d="M398.14,-106.88C416.72,-101.95 438.4,-96.2 457.96,-91.01"/>
<polygon fill="midnightblue" stroke="midnightblue" points="397.22,-103.51 388.45,-109.46 399.02,-110.27 397.22,-103.51"/>
</g>
<!-- Node6 -->
<g id="node6" class="node">
<title>Node6</title>
<g id="a_node6"><a xlink:title=" ">
<polygon fill="white" stroke="black" points="459,-0.5 459,-41.5 572,-41.5 572,-0.5 459,-0.5"/>
<text text-anchor="start" x="467" y="-29.5" font-family="Helvetica,sans-Serif" font-size="10.00">Skills... &lt; PreFE,</text>
<text text-anchor="start" x="467" y="-18.5" font-family="Helvetica,sans-Serif" font-size="10.00"> PreFE::template FE</text>
<text text-anchor="middle" x="515.5" y="-7.5" font-family="Helvetica,sans-Serif" font-size="10.00">&lt; Skills... ... &gt; &gt;</text>
</a>
</g>
</g>
<!-- Node6&#45;&gt;Node4 -->
<g id="edge5" class="edge">
<title>Node6&#45;&gt;Node4</title>
<path fill="none" stroke="midnightblue" d="M581.67,-38.66C632.91,-52.55 703.54,-71.69 752.2,-84.88"/>
<polygon fill="midnightblue" stroke="midnightblue" points="582.58,-35.28 572.02,-36.05 580.75,-42.04 582.58,-35.28"/>
</g>
<!-- Node7&#45;&gt;Node4 -->
<g id="edge6" class="edge">
<title>Node7&#45;&gt;Node4</title>
<path fill="none" stroke="orange" stroke-dasharray="5,2" d="M592.32,-82.24C638.88,-86.08 697.92,-90.94 742.46,-94.6"/>
<polygon fill="orange" stroke="orange" points="592.54,-78.75 582.28,-81.42 591.96,-85.72 592.54,-78.75"/>
<text text-anchor="middle" x="651.5" y="-93" font-family="Helvetica,sans-Serif" font-size="10.00"> &lt; PreFE, Skills... &gt;</text>
</g>
<!-- Node8 -->
<g id="node8" class="node">
<title>Node8</title>
<g id="a_node8"><a xlink:href="a01736.html" target="_top" xlink:title=" ">
<polygon fill="white" stroke="black" points="291,-49.5 291,-90.5 412,-90.5 412,-49.5 291,-49.5"/>
<text text-anchor="start" x="299" y="-78.5" font-family="Helvetica,sans-Serif" font-size="10.00">Ikarus::Skills&lt; PreFE,</text>
<text text-anchor="start" x="299" y="-67.5" font-family="Helvetica,sans-Serif" font-size="10.00"> PreFE::template FE&lt;</text>
<text text-anchor="middle" x="351.5" y="-56.5" font-family="Helvetica,sans-Serif" font-size="10.00"> Skills... &gt; &gt;</text>
</a>
</g>
</g>
<!-- Node8&#45;&gt;Node7 -->
<g id="edge8" class="edge">
<title>Node8&#45;&gt;Node7</title>
<path fill="none" stroke="midnightblue" d="M422.53,-72.59C431.28,-72.92 440.21,-73.25 448.89,-73.57"/>
<polygon fill="midnightblue" stroke="midnightblue" points="422.49,-69.09 412.36,-72.22 422.23,-76.08 422.49,-69.09"/>
</g>
<!-- Node9 -->
<g id="node9" class="node">
<title>Node9</title>
<g id="a_node9"><a xlink:href="a01736.html" target="_top" xlink:title="Struct representing a collection of skills.">
<polygon fill="white" stroke="black" points="0,-60.5 0,-79.5 128,-79.5 128,-60.5 0,-60.5"/>
<text text-anchor="middle" x="64" y="-67.5" font-family="Helvetica,sans-Serif" font-size="10.00">Ikarus::Skills&lt; ARGS &gt;</text>
</a>
</g>
</g>
<!-- Node9&#45;&gt;Node8 -->
<g id="edge9" class="edge">
<title>Node9&#45;&gt;Node8</title>
<path fill="none" stroke="orange" stroke-dasharray="5,2" d="M138.18,-70C185.45,-70 246.19,-70 290.58,-70"/>
<polygon fill="orange" stroke="orange" points="138.01,-66.5 128.01,-70 138.01,-73.5 138.01,-66.5"/>
<text text-anchor="start" x="146" y="-84" font-family="Helvetica,sans-Serif" font-size="10.00"> &lt; PreFE, PreFE::template</text>
<text text-anchor="middle" x="209.5" y="-73" font-family="Helvetica,sans-Serif" font-size="10.00"> FE&lt; Skills... &gt; &gt;</text>
</g>
</g>
</svg>
