<?xml version="1.0" encoding="UTF-8" standalone="no"?>
<!DOCTYPE svg PUBLIC "-//W3C//DTD SVG 1.1//EN"
 "http://www.w3.org/Graphics/SVG/1.1/DTD/svg11.dtd">
<!-- Generated by graphviz version 2.43.0 (0)
 -->
<!-- Title: Ikarus::NonLinearElastic&lt; PreFE, FE, PRE &gt; Pages: 1 -->
<svg width="648pt" height="84pt"
 viewBox="0.00 0.00 648.00 84.00" xmlns="http://www.w3.org/2000/svg" xmlns:xlink="http://www.w3.org/1999/xlink">
<g id="graph0" class="graph" transform="scale(1 1) rotate(0) translate(4 80)">
<title>Ikarus::NonLinearElastic&lt; PreFE, FE, PRE &gt;</title>
<polygon fill="white" stroke="transparent" points="-4,4 -4,-80 644,-80 644,4 -4,4"/>
<!-- Node1 -->
<g id="node1" class="node">
<title>Node1</title>
<g id="a_node1"><a xlink:title="NonLinearElastic class represents a non&#45;linear elastic finite element.">
<polygon fill="#bfbfbf" stroke="black" points="506,-17 506,-47 640,-47 640,-17 506,-17"/>
<text text-anchor="start" x="514" y="-35" font-family="Helvetica,sans-Serif" font-size="10.00">Ikarus::NonLinearElastic</text>
<text text-anchor="middle" x="573" y="-24" font-family="Helvetica,sans-Serif" font-size="10.00">&lt; PreFE, FE, PRE &gt;</text>
</a>
</g>
</g>
<!-- Node2 -->
<g id="node2" class="node">
<title>Node2</title>
<g id="a_node2"><a xlink:href="a01558.html" target="_top" xlink:title=" ">
<polygon fill="white" stroke="black" points="309,-0.5 309,-63.5 469,-63.5 469,-0.5 309,-0.5"/>
<text text-anchor="start" x="317" y="-51.5" font-family="Helvetica,sans-Serif" font-size="10.00">Ikarus::ResultTypeBase</text>
<text text-anchor="start" x="317" y="-40.5" font-family="Helvetica,sans-Serif" font-size="10.00">&lt; ResultTypes::PK2Stress,</text>
<text text-anchor="start" x="317" y="-29.5" font-family="Helvetica,sans-Serif" font-size="10.00"> ResultTypes::PK2StressFull,</text>
<text text-anchor="start" x="317" y="-18.5" font-family="Helvetica,sans-Serif" font-size="10.00"> ResultTypes::kirchhoffStress,</text>
<text text-anchor="middle" x="389" y="-7.5" font-family="Helvetica,sans-Serif" font-size="10.00"> ResultTypes::cauchyStress &gt;</text>
</a>
</g>
</g>
<!-- Node2&#45;&gt;Node1 -->
<g id="edge1" class="edge">
<title>Node2&#45;&gt;Node1</title>
<path fill="none" stroke="midnightblue" d="M479.15,-32C488.14,-32 497.16,-32 505.84,-32"/>
<polygon fill="midnightblue" stroke="midnightblue" points="479.03,-28.5 469.03,-32 479.03,-35.5 479.03,-28.5"/>
</g>
<!-- Node3 -->
<g id="node3" class="node">
<title>Node3</title>
<g id="a_node3"><a xlink:href="a01558.html" target="_top" xlink:title="Base class for element definitions that provides common functionality for ResultTypes.">
<polygon fill="white" stroke="black" points="0,-17 0,-47 129,-47 129,-17 0,-17"/>
<text text-anchor="start" x="8" y="-35" font-family="Helvetica,sans-Serif" font-size="10.00">Ikarus::ResultTypeBase</text>
<text text-anchor="middle" x="64.5" y="-24" font-family="Helvetica,sans-Serif" font-size="10.00">&lt; ResultTypes &gt;</text>
</a>
</g>
</g>
<!-- Node3&#45;&gt;Node2 -->
<g id="edge2" class="edge">
<title>Node3&#45;&gt;Node2</title>
<path fill="none" stroke="orange" stroke-dasharray="5,2" d="M139.43,-32C190.01,-32 257.01,-32 308.71,-32"/>
<polygon fill="orange" stroke="orange" points="139.22,-28.5 129.22,-32 139.22,-35.5 139.22,-28.5"/>
<text text-anchor="start" x="147" y="-68" font-family="Helvetica,sans-Serif" font-size="10.00"> &lt; ResultTypes::PK2Stress,</text>
<text text-anchor="start" x="147" y="-57" font-family="Helvetica,sans-Serif" font-size="10.00"> ResultTypes::PK2StressFull,</text>
<text text-anchor="start" x="147" y="-46" font-family="Helvetica,sans-Serif" font-size="10.00"> ResultTypes::kirchhoffStress,</text>
<text text-anchor="middle" x="219" y="-35" font-family="Helvetica,sans-Serif" font-size="10.00"> ResultTypes::cauchyStress &gt;</text>
</g>
</g>
</svg>
