<?xml version="1.0" encoding="UTF-8" standalone="no"?>
<!DOCTYPE svg PUBLIC "-//W3C//DTD SVG 1.1//EN"
 "http://www.w3.org/Graphics/SVG/1.1/DTD/svg11.dtd">
<!-- Generated by graphviz version 2.43.0 (0)
 -->
<!-- Title: finiteelements Pages: 1 -->
<svg width="779pt" height="539pt"
 viewBox="0.00 0.00 779.00 539.00" xmlns="http://www.w3.org/2000/svg" xmlns:xlink="http://www.w3.org/1999/xlink">
<g id="graph0" class="graph" transform="scale(1 1) rotate(0) translate(4 535)">
<title>finiteelements</title>
<polygon fill="white" stroke="transparent" points="-4,4 -4,-535 775,-535 775,4 -4,4"/>
<g id="clust1" class="cluster">
<title>clusterdir_5bec9ec6c6b8ab3f2f9d60d2ff21ed81</title>
<g id="a_clust1"><a xlink:href="dir_5bec9ec6c6b8ab3f2f9d60d2ff21ed81.html" target="_top" xlink:title="ikarus">
<polygon fill="#edf0f7" stroke="#404040" stroke-dasharray="5,2" points="8,-8 8,-523 763,-523 763,-8 8,-8"/>
<text text-anchor="middle" x="385.5" y="-511" font-family="Helvetica,sans-Serif" font-size="10.00">ikarus</text>
</a>
</g>
</g>
<g id="clust2" class="cluster">
<title>clusterdir_f5e28093cb075fb92f2345f7d8607df6</title>
<g id="a_clust2"><a xlink:href="dir_f5e28093cb075fb92f2345f7d8607df6.html" target="_top">
<polygon fill="#edf0f7" stroke="#404040" stroke-width="2" points="16,-60 16,-496 513,-496 513,-60 16,-60"/>
</a>
</g>
</g>
<g id="clust3" class="cluster">
<title>clusterdir_d9d7fab038fcca5270fe0241ec433d4d</title>
<g id="a_clust3"><a xlink:href="dir_d9d7fab038fcca5270fe0241ec433d4d.html" target="_top">
<polygon fill="#dfe5f1" stroke="#404040" points="24,-68 24,-424 505,-424 505,-68 24,-68"/>
</a>
</g>
</g>
<g id="clust4" class="cluster">
<title>clusterdir_34e442d8c1dd2b59eed3e9118cf1019a</title>
<g id="a_clust4"><a xlink:href="dir_34e442d8c1dd2b59eed3e9118cf1019a.html" target="_top">
<polygon fill="#d0d9ea" stroke="#404040" points="64,-228 64,-352 240,-352 240,-228 64,-228"/>
</a>
</g>
</g>
<g id="clust5" class="cluster">
<title>clusterdir_fc403fdb7d4f9d9b203e31bf1b8a15f4</title>
<g id="a_clust5"><a xlink:href="dir_fc403fdb7d4f9d9b203e31bf1b8a15f4.html" target="_top">
<polygon fill="#d0d9ea" stroke="#404040" points="178,-76 178,-216 497,-216 497,-76 178,-76"/>
</a>
</g>
</g>
<g id="clust6" class="cluster">
<title>clusterdir_a03d0955ec786907fd5e2d9460a59b20</title>
<g id="a_clust6"><a xlink:href="dir_a03d0955ec786907fd5e2d9460a59b20.html" target="_top">
<polygon fill="#c1cde4" stroke="#404040" points="248,-84 248,-208 417,-208 417,-84 248,-84"/>
</a>
</g>
</g>
<g id="clust7" class="cluster">
<title>clusterdir_f35896bbba8936d1d4d1ed6b76b80319</title>
<g id="a_clust7"><a xlink:href="dir_f35896bbba8936d1d4d1ed6b76b80319.html" target="_top">
<polygon fill="#d0d9ea" stroke="#404040" points="248,-228 248,-352 435,-352 435,-228 248,-228"/>
</a>
</g>
</g>
<!-- dir_36505a9bfb81f81ed7a4e794d4cf597e -->
<g id="node1" class="node">
<title>dir_36505a9bfb81f81ed7a4e794d4cf597e</title>
<g id="a_node1"><a xlink:href="dir_36505a9bfb81f81ed7a4e794d4cf597e.html" target="_top" xlink:title="utils">
<polygon fill="#dfe5f1" stroke="red" points="661,-52 607,-52 607,-16 661,-16 661,-52"/>
<text text-anchor="middle" x="634" y="-31.5" font-family="Helvetica,sans-Serif" font-size="10.00">utils</text>
</a>
</g>
</g>
<!-- dir_26588bed129c997bc132e8888f2113fa -->
<g id="node2" class="node">
<title>dir_26588bed129c997bc132e8888f2113fa</title>
<g id="a_node2"><a xlink:href="dir_26588bed129c997bc132e8888f2113fa.html" target="_top" xlink:title="solver">
<polygon fill="#dfe5f1" stroke="red" points="575,-128 521,-128 521,-92 575,-92 575,-128"/>
<text text-anchor="middle" x="548" y="-107.5" font-family="Helvetica,sans-Serif" font-size="10.00">solver</text>
</a>
</g>
</g>
<!-- dir_f5e28093cb075fb92f2345f7d8607df6 -->
<g id="node3" class="node">
<title>dir_f5e28093cb075fb92f2345f7d8607df6</title>
<text text-anchor="middle" x="414" y="-467.5" font-family="Helvetica,sans-Serif" font-size="10.00">finiteelements</text>
</g>
<!-- dir_f5e28093cb075fb92f2345f7d8607df6&#45;&gt;dir_36505a9bfb81f81ed7a4e794d4cf597e -->
<g id="edge1" class="edge">
<title>dir_f5e28093cb075fb92f2345f7d8607df6&#45;&gt;dir_36505a9bfb81f81ed7a4e794d4cf597e</title>
<path fill="none" stroke="black" d="M457.75,-469.94C549.58,-469.42 754,-453.98 754,-327 754,-327 754,-327 754,-181 754,-126.17 767.61,-99.89 730,-60 715.01,-44.1 691.3,-37.82 671.19,-35.53"/>
<polygon fill="black" stroke="black" points="671.33,-32.03 661.07,-34.67 670.73,-39 671.33,-32.03"/>
<g id="a_edge1&#45;headlabel"><a xlink:href="dir_000019_000041.html" target="_top" xlink:title="55">
<text text-anchor="middle" x="675.15" y="-27" font-family="Helvetica,sans-Serif" font-size="10.00">55</text>
</a>
</g>
</g>
<!-- dir_d9d7fab038fcca5270fe0241ec433d4d -->
<g id="node4" class="node">
<title>dir_d9d7fab038fcca5270fe0241ec433d4d</title>
<text text-anchor="middle" x="367" y="-395.5" font-family="Helvetica,sans-Serif" font-size="10.00">mechanics</text>
</g>
<!-- dir_f5e28093cb075fb92f2345f7d8607df6&#45;&gt;dir_d9d7fab038fcca5270fe0241ec433d4d -->
<g id="edge2" class="edge">
<title>dir_f5e28093cb075fb92f2345f7d8607df6&#45;&gt;dir_d9d7fab038fcca5270fe0241ec433d4d</title>
<path fill="none" stroke="black" d="M402.38,-451.7C396.86,-443.47 390.15,-433.48 384.07,-424.42"/>
<polygon fill="black" stroke="black" points="386.96,-422.46 378.48,-416.1 381.15,-426.36 386.96,-422.46"/>
<g id="a_edge2&#45;headlabel"><a xlink:href="dir_000019_000033.html" target="_top" xlink:title="38">
<text text-anchor="middle" x="391.33" y="-421.36" font-family="Helvetica,sans-Serif" font-size="10.00">38</text>
</a>
</g>
</g>
<!-- dir_d9d7fab038fcca5270fe0241ec433d4d&#45;&gt;dir_36505a9bfb81f81ed7a4e794d4cf597e -->
<g id="edge5" class="edge">
<title>dir_d9d7fab038fcca5270fe0241ec433d4d&#45;&gt;dir_36505a9bfb81f81ed7a4e794d4cf597e</title>
<path fill="none" stroke="black" d="M401.7,-381.22C402.81,-380.8 403.91,-380.39 405,-380 552.17,-327.02 734,-411.42 734,-255 734,-255 734,-255 734,-181 734,-126.42 748.91,-101.1 713,-60 702.54,-48.03 686.39,-41.73 671.41,-38.45"/>
<polygon fill="black" stroke="black" points="671.78,-34.96 661.32,-36.62 670.53,-41.84 671.78,-34.96"/>
<g id="a_edge5&#45;headlabel"><a xlink:href="dir_000033_000041.html" target="_top" xlink:title="46">
<text text-anchor="middle" x="675.82" y="-30.3" font-family="Helvetica,sans-Serif" font-size="10.00">46</text>
</a>
</g>
</g>
<!-- dir_34e442d8c1dd2b59eed3e9118cf1019a -->
<g id="node5" class="node">
<title>dir_34e442d8c1dd2b59eed3e9118cf1019a</title>
<text text-anchor="middle" x="187" y="-323.5" font-family="Helvetica,sans-Serif" font-size="10.00">assumedstress</text>
</g>
<!-- dir_d9d7fab038fcca5270fe0241ec433d4d&#45;&gt;dir_34e442d8c1dd2b59eed3e9118cf1019a -->
<g id="edge4" class="edge">
<title>dir_d9d7fab038fcca5270fe0241ec433d4d&#45;&gt;dir_34e442d8c1dd2b59eed3e9118cf1019a</title>
<path fill="none" stroke="black" d="M332.32,-384.96C307.56,-376.21 273.54,-363.87 244,-352 240.79,-350.71 237.5,-349.36 234.19,-347.97"/>
<polygon fill="black" stroke="black" points="235.45,-344.7 224.88,-344.01 232.71,-351.14 235.45,-344.7"/>
<g id="a_edge4&#45;headlabel"><a xlink:href="dir_000033_000004.html" target="_top" xlink:title="5">
<text text-anchor="middle" x="239.87" y="-341" font-family="Helvetica,sans-Serif" font-size="10.00">5</text>
</a>
</g>
</g>
<!-- dir_31d7c48772b4fae367539a6092b906a8 -->
<g id="node8" class="node">
<title>dir_31d7c48772b4fae367539a6092b906a8</title>
<g id="a_node8"><a xlink:href="dir_31d7c48772b4fae367539a6092b906a8.html" target="_top" xlink:title="loads">
<polygon fill="#d0d9ea" stroke="#404040" points="497,-344 443,-344 443,-308 497,-308 497,-344"/>
<text text-anchor="middle" x="470" y="-323.5" font-family="Helvetica,sans-Serif" font-size="10.00">loads</text>
</a>
</g>
</g>
<!-- dir_d9d7fab038fcca5270fe0241ec433d4d&#45;&gt;dir_31d7c48772b4fae367539a6092b906a8 -->
<g id="edge3" class="edge">
<title>dir_d9d7fab038fcca5270fe0241ec433d4d&#45;&gt;dir_31d7c48772b4fae367539a6092b906a8</title>
<path fill="none" stroke="black" d="M396.25,-379.82C409.53,-371.73 425.31,-361.75 439,-352 439.76,-351.46 440.53,-350.9 441.31,-350.33"/>
<polygon fill="black" stroke="black" points="443.75,-352.87 449.59,-344.03 439.51,-347.3 443.75,-352.87"/>
<g id="a_edge3&#45;headlabel"><a xlink:href="dir_000033_000030.html" target="_top" xlink:title="2">
<text text-anchor="middle" x="442.61" y="-354.81" font-family="Helvetica,sans-Serif" font-size="10.00">2</text>
</a>
</g>
</g>
<!-- dir_fc403fdb7d4f9d9b203e31bf1b8a15f4 -->
<g id="node9" class="node">
<title>dir_fc403fdb7d4f9d9b203e31bf1b8a15f4</title>
<text text-anchor="middle" x="457" y="-179.5" font-family="Helvetica,sans-Serif" font-size="10.00">materials</text>
</g>
<!-- dir_d9d7fab038fcca5270fe0241ec433d4d&#45;&gt;dir_fc403fdb7d4f9d9b203e31bf1b8a15f4 -->
<g id="edge8" class="edge">
<title>dir_d9d7fab038fcca5270fe0241ec433d4d&#45;&gt;dir_fc403fdb7d4f9d9b203e31bf1b8a15f4</title>
<path fill="none" stroke="black" d="M332.23,-397.33C259.45,-397.2 94.87,-392.35 60,-352 41.98,-331.15 40.84,-247.81 60,-228 73.95,-213.58 402.42,-223.58 421,-216 426.2,-213.88 431.12,-210.64 435.56,-207.01"/>
<polygon fill="black" stroke="black" points="437.97,-209.55 442.98,-200.21 433.24,-204.39 437.97,-209.55"/>
<g id="a_edge8&#45;headlabel"><a xlink:href="dir_000033_000031.html" target="_top" xlink:title="20">
<text text-anchor="middle" x="437.24" y="-211.57" font-family="Helvetica,sans-Serif" font-size="10.00">20</text>
</a>
</g>
</g>
<!-- dir_a03d0955ec786907fd5e2d9460a59b20 -->
<g id="node10" class="node">
<title>dir_a03d0955ec786907fd5e2d9460a59b20</title>
<text text-anchor="middle" x="333" y="-179.5" font-family="Helvetica,sans-Serif" font-size="10.00">hyperelastic</text>
</g>
<!-- dir_d9d7fab038fcca5270fe0241ec433d4d&#45;&gt;dir_a03d0955ec786907fd5e2d9460a59b20 -->
<g id="edge6" class="edge">
<title>dir_d9d7fab038fcca5270fe0241ec433d4d&#45;&gt;dir_a03d0955ec786907fd5e2d9460a59b20</title>
<path fill="none" stroke="black" d="M332.31,-397.55C257.45,-397.91 84.55,-394.06 48,-352 11.85,-310.4 10.01,-267.92 48,-228 66.56,-208.5 264.73,-225.28 290,-216 296.14,-213.74 302.12,-210.28 307.58,-206.42"/>
<polygon fill="black" stroke="black" points="309.89,-209.06 315.66,-200.17 305.61,-203.52 309.89,-209.06"/>
<g id="a_edge6&#45;headlabel"><a xlink:href="dir_000033_000021.html" target="_top" xlink:title="10">
<text text-anchor="middle" x="308.79" y="-211" font-family="Helvetica,sans-Serif" font-size="10.00">10</text>
</a>
</g>
</g>
<!-- dir_f35896bbba8936d1d4d1ed6b76b80319 -->
<g id="node14" class="node">
<title>dir_f35896bbba8936d1d4d1ed6b76b80319</title>
<text text-anchor="middle" x="367" y="-323.5" font-family="Helvetica,sans-Serif" font-size="10.00">strainenhancements</text>
</g>
<!-- dir_d9d7fab038fcca5270fe0241ec433d4d&#45;&gt;dir_f35896bbba8936d1d4d1ed6b76b80319 -->
<g id="edge7" class="edge">
<title>dir_d9d7fab038fcca5270fe0241ec433d4d&#45;&gt;dir_f35896bbba8936d1d4d1ed6b76b80319</title>
<path fill="none" stroke="black" d="M367,-379.7C367,-371.98 367,-362.71 367,-354.11"/>
<polygon fill="black" stroke="black" points="370.5,-354.1 367,-344.1 363.5,-354.1 370.5,-354.1"/>
<g id="a_edge7&#45;headlabel"><a xlink:href="dir_000033_000039.html" target="_top" xlink:title="9">
<text text-anchor="middle" x="373.34" y="-355.2" font-family="Helvetica,sans-Serif" font-size="10.00">9</text>
</a>
</g>
</g>
<!-- dir_34e442d8c1dd2b59eed3e9118cf1019a&#45;&gt;dir_36505a9bfb81f81ed7a4e794d4cf597e -->
<g id="edge9" class="edge">
<title>dir_34e442d8c1dd2b59eed3e9118cf1019a&#45;&gt;dir_36505a9bfb81f81ed7a4e794d4cf597e</title>
<path fill="none" stroke="black" d="M232.31,-311.01C236.25,-309.94 240.18,-308.92 244,-308 425.99,-264.2 538.77,-362.73 655,-216 674.97,-190.79 670.45,-105.89 656.14,-61.71"/>
<polygon fill="black" stroke="black" points="659.37,-60.35 652.63,-52.17 652.8,-62.77 659.37,-60.35"/>
<g id="a_edge9&#45;headlabel"><a xlink:href="dir_000004_000041.html" target="_top" xlink:title="3">
<text text-anchor="middle" x="663.28" y="-60.24" font-family="Helvetica,sans-Serif" font-size="10.00">3</text>
</a>
</g>
</g>
<!-- dir_bca6dfa9db174f08b5ac5e0aa26bca0c -->
<g id="node6" class="node">
<title>dir_bca6dfa9db174f08b5ac5e0aa26bca0c</title>
<g id="a_node6"><a xlink:href="dir_bca6dfa9db174f08b5ac5e0aa26bca0c.html" target="_top" xlink:title="asfunctions">
<polygon fill="#c1cde4" stroke="#404040" points="231.5,-272 158.5,-272 158.5,-236 231.5,-236 231.5,-272"/>
<text text-anchor="middle" x="195" y="-251.5" font-family="Helvetica,sans-Serif" font-size="10.00">asfunctions</text>
</a>
</g>
</g>
<!-- dir_34e442d8c1dd2b59eed3e9118cf1019a&#45;&gt;dir_bca6dfa9db174f08b5ac5e0aa26bca0c -->
<g id="edge11" class="edge">
<title>dir_34e442d8c1dd2b59eed3e9118cf1019a&#45;&gt;dir_bca6dfa9db174f08b5ac5e0aa26bca0c</title>
<path fill="none" stroke="black" d="M188.98,-307.7C189.86,-299.98 190.92,-290.71 191.9,-282.11"/>
<polygon fill="black" stroke="black" points="195.39,-282.44 193.05,-272.1 188.43,-281.64 195.39,-282.44"/>
<g id="a_edge11&#45;headlabel"><a xlink:href="dir_000004_000000.html" target="_top" xlink:title="2">
<text text-anchor="middle" x="197.8" y="-283.83" font-family="Helvetica,sans-Serif" font-size="10.00">2</text>
</a>
</g>
</g>
<!-- dir_5cf6b75f08da308ae6ff3e873ec18cde -->
<g id="node7" class="node">
<title>dir_5cf6b75f08da308ae6ff3e873ec18cde</title>
<g id="a_node7"><a xlink:href="dir_5cf6b75f08da308ae6ff3e873ec18cde.html" target="_top" xlink:title="asvariants">
<polygon fill="#c1cde4" stroke="#404040" points="140,-272 72,-272 72,-236 140,-236 140,-272"/>
<text text-anchor="middle" x="106" y="-251.5" font-family="Helvetica,sans-Serif" font-size="10.00">asvariants</text>
</a>
</g>
</g>
<!-- dir_34e442d8c1dd2b59eed3e9118cf1019a&#45;&gt;dir_5cf6b75f08da308ae6ff3e873ec18cde -->
<g id="edge10" class="edge">
<title>dir_34e442d8c1dd2b59eed3e9118cf1019a&#45;&gt;dir_5cf6b75f08da308ae6ff3e873ec18cde</title>
<path fill="none" stroke="black" d="M166.98,-307.7C156.87,-298.97 144.46,-288.24 133.48,-278.75"/>
<polygon fill="black" stroke="black" points="135.65,-275.99 125.79,-272.1 131.07,-281.29 135.65,-275.99"/>
<g id="a_edge10&#45;headlabel"><a xlink:href="dir_000004_000005.html" target="_top" xlink:title="1">
<text text-anchor="middle" x="140.22" y="-273.7" font-family="Helvetica,sans-Serif" font-size="10.00">1</text>
</a>
</g>
</g>
<!-- dir_bca6dfa9db174f08b5ac5e0aa26bca0c&#45;&gt;dir_36505a9bfb81f81ed7a4e794d4cf597e -->
<g id="edge12" class="edge">
<title>dir_bca6dfa9db174f08b5ac5e0aa26bca0c&#45;&gt;dir_36505a9bfb81f81ed7a4e794d4cf597e</title>
<path fill="none" stroke="black" d="M223.19,-235.99C229.8,-232.76 236.97,-229.82 244,-228 263.11,-223.06 583.99,-228.81 599,-216 610.62,-206.07 624.39,-110.15 630.63,-62.12"/>
<polygon fill="black" stroke="black" points="634.11,-62.47 631.91,-52.1 627.17,-61.58 634.11,-62.47"/>
<g id="a_edge12&#45;headlabel"><a xlink:href="dir_000000_000041.html" target="_top" xlink:title="1">
<text text-anchor="middle" x="636.47" y="-63.89" font-family="Helvetica,sans-Serif" font-size="10.00">1</text>
</a>
</g>
</g>
<!-- dir_5cf6b75f08da308ae6ff3e873ec18cde&#45;&gt;dir_36505a9bfb81f81ed7a4e794d4cf597e -->
<g id="edge13" class="edge">
<title>dir_5cf6b75f08da308ae6ff3e873ec18cde&#45;&gt;dir_36505a9bfb81f81ed7a4e794d4cf597e</title>
<path fill="none" stroke="black" d="M130.53,-236C136.34,-232.76 142.69,-229.82 149,-228 186.61,-217.17 465.34,-232.11 501,-216 576.82,-181.75 574.06,-138.16 616.81,-61.07"/>
<polygon fill="black" stroke="black" points="620.06,-62.43 621.96,-52 613.97,-58.97 620.06,-62.43"/>
<g id="a_edge13&#45;headlabel"><a xlink:href="dir_000005_000041.html" target="_top" xlink:title="1">
<text text-anchor="middle" x="620.75" y="-64.45" font-family="Helvetica,sans-Serif" font-size="10.00">1</text>
</a>
</g>
</g>
<!-- dir_5cf6b75f08da308ae6ff3e873ec18cde&#45;&gt;dir_fc403fdb7d4f9d9b203e31bf1b8a15f4 -->
<g id="edge14" class="edge">
<title>dir_5cf6b75f08da308ae6ff3e873ec18cde&#45;&gt;dir_fc403fdb7d4f9d9b203e31bf1b8a15f4</title>
<path fill="none" stroke="black" d="M131,-235.79C136.69,-232.65 142.87,-229.8 149,-228 207.06,-210.97 365.11,-239.17 421,-216 426.19,-213.85 431.1,-210.6 435.54,-206.97"/>
<polygon fill="black" stroke="black" points="437.95,-209.5 442.96,-200.17 433.22,-204.34 437.95,-209.5"/>
<g id="a_edge14&#45;headlabel"><a xlink:href="dir_000005_000031.html" target="_top" xlink:title="1">
<text text-anchor="middle" x="437.22" y="-211.53" font-family="Helvetica,sans-Serif" font-size="10.00">1</text>
</a>
</g>
</g>
<!-- dir_31d7c48772b4fae367539a6092b906a8&#45;&gt;dir_36505a9bfb81f81ed7a4e794d4cf597e -->
<g id="edge15" class="edge">
<title>dir_31d7c48772b4fae367539a6092b906a8&#45;&gt;dir_36505a9bfb81f81ed7a4e794d4cf597e</title>
<path fill="none" stroke="black" d="M497.16,-309.49C498.44,-308.95 499.73,-308.45 501,-308 585.3,-278.11 641.69,-340.67 699,-272 729.19,-235.83 725.67,-98.83 699,-60 692.5,-50.54 681.88,-44.66 671.1,-41"/>
<polygon fill="black" stroke="black" points="671.83,-37.57 661.25,-38.23 669.93,-44.31 671.83,-37.57"/>
<g id="a_edge15&#45;headlabel"><a xlink:href="dir_000030_000041.html" target="_top" xlink:title="2">
<text text-anchor="middle" x="676.06" y="-33.31" font-family="Helvetica,sans-Serif" font-size="10.00">2</text>
</a>
</g>
</g>
<!-- dir_fc403fdb7d4f9d9b203e31bf1b8a15f4&#45;&gt;dir_36505a9bfb81f81ed7a4e794d4cf597e -->
<g id="edge17" class="edge">
<title>dir_fc403fdb7d4f9d9b203e31bf1b8a15f4&#45;&gt;dir_36505a9bfb81f81ed7a4e794d4cf597e</title>
<path fill="none" stroke="black" d="M459.73,-163.95C464.91,-137.4 478.8,-86.47 512,-60 524.91,-49.71 565.84,-42.8 596.76,-38.9"/>
<polygon fill="black" stroke="black" points="597.3,-42.36 606.81,-37.69 596.46,-35.41 597.3,-42.36"/>
<g id="a_edge17&#45;headlabel"><a xlink:href="dir_000031_000041.html" target="_top" xlink:title="26">
<text text-anchor="middle" x="594.07" y="-43.11" font-family="Helvetica,sans-Serif" font-size="10.00">26</text>
</a>
</g>
</g>
<!-- dir_fc403fdb7d4f9d9b203e31bf1b8a15f4&#45;&gt;dir_26588bed129c997bc132e8888f2113fa -->
<g id="edge16" class="edge">
<title>dir_fc403fdb7d4f9d9b203e31bf1b8a15f4&#45;&gt;dir_26588bed129c997bc132e8888f2113fa</title>
<path fill="none" stroke="black" d="M479.49,-163.7C490.96,-154.88 505.06,-144.03 517.48,-134.47"/>
<polygon fill="black" stroke="black" points="519.97,-136.98 525.76,-128.1 515.7,-131.43 519.97,-136.98"/>
<g id="a_edge16&#45;headlabel"><a xlink:href="dir_000031_000038.html" target="_top" xlink:title="3">
<text text-anchor="middle" x="518.85" y="-138.92" font-family="Helvetica,sans-Serif" font-size="10.00">3</text>
</a>
</g>
</g>
<!-- dir_a03d0955ec786907fd5e2d9460a59b20&#45;&gt;dir_36505a9bfb81f81ed7a4e794d4cf597e -->
<g id="edge18" class="edge">
<title>dir_a03d0955ec786907fd5e2d9460a59b20&#45;&gt;dir_36505a9bfb81f81ed7a4e794d4cf597e</title>
<path fill="none" stroke="black" d="M370.01,-163.91C386.1,-155.02 404.16,-142.89 417,-128 438.57,-102.99 420.59,-79.84 447,-60 469.89,-42.81 548.69,-37.44 596.39,-35.76"/>
<polygon fill="black" stroke="black" points="596.75,-39.25 606.64,-35.44 596.53,-32.26 596.75,-39.25"/>
<g id="a_edge18&#45;headlabel"><a xlink:href="dir_000021_000041.html" target="_top" xlink:title="13">
<text text-anchor="middle" x="593.25" y="-39.7" font-family="Helvetica,sans-Serif" font-size="10.00">13</text>
</a>
</g>
</g>
<!-- dir_4ba2a7935bd4322f95edc73c65047dcd -->
<g id="node11" class="node">
<title>dir_4ba2a7935bd4322f95edc73c65047dcd</title>
<g id="a_node11"><a xlink:href="dir_4ba2a7935bd4322f95edc73c65047dcd.html" target="_top" xlink:title="deviatoric">
<polygon fill="#b2c0dd" stroke="#404040" points="321.5,-128 256.5,-128 256.5,-92 321.5,-92 321.5,-128"/>
<text text-anchor="middle" x="289" y="-107.5" font-family="Helvetica,sans-Serif" font-size="10.00">deviatoric</text>
</a>
</g>
</g>
<!-- dir_a03d0955ec786907fd5e2d9460a59b20&#45;&gt;dir_4ba2a7935bd4322f95edc73c65047dcd -->
<g id="edge19" class="edge">
<title>dir_a03d0955ec786907fd5e2d9460a59b20&#45;&gt;dir_4ba2a7935bd4322f95edc73c65047dcd</title>
<path fill="none" stroke="black" d="M322.12,-163.7C317.01,-155.56 310.8,-145.69 305.16,-136.7"/>
<polygon fill="black" stroke="black" points="308.04,-134.71 299.75,-128.1 302.11,-138.43 308.04,-134.71"/>
<g id="a_edge19&#45;headlabel"><a xlink:href="dir_000021_000009.html" target="_top" xlink:title="7">
<text text-anchor="middle" x="312.35" y="-133.74" font-family="Helvetica,sans-Serif" font-size="10.00">7</text>
</a>
</g>
</g>
<!-- dir_e24c925cb0f035293ddb71c6b0ba176b -->
<g id="node12" class="node">
<title>dir_e24c925cb0f035293ddb71c6b0ba176b</title>
<g id="a_node12"><a xlink:href="dir_e24c925cb0f035293ddb71c6b0ba176b.html" target="_top" xlink:title="volumetric">
<polygon fill="#b2c0dd" stroke="#404040" points="408.5,-128 339.5,-128 339.5,-92 408.5,-92 408.5,-128"/>
<text text-anchor="middle" x="374" y="-107.5" font-family="Helvetica,sans-Serif" font-size="10.00">volumetric</text>
</a>
</g>
</g>
<!-- dir_a03d0955ec786907fd5e2d9460a59b20&#45;&gt;dir_e24c925cb0f035293ddb71c6b0ba176b -->
<g id="edge20" class="edge">
<title>dir_a03d0955ec786907fd5e2d9460a59b20&#45;&gt;dir_e24c925cb0f035293ddb71c6b0ba176b</title>
<path fill="none" stroke="black" d="M343.13,-163.7C347.85,-155.64 353.56,-145.89 358.78,-136.98"/>
<polygon fill="black" stroke="black" points="361.95,-138.5 363.98,-128.1 355.91,-134.96 361.95,-138.5"/>
<g id="a_edge20&#45;headlabel"><a xlink:href="dir_000021_000043.html" target="_top" xlink:title="2">
<text text-anchor="middle" x="362.58" y="-140.54" font-family="Helvetica,sans-Serif" font-size="10.00">2</text>
</a>
</g>
</g>
<!-- dir_4ba2a7935bd4322f95edc73c65047dcd&#45;&gt;dir_36505a9bfb81f81ed7a4e794d4cf597e -->
<g id="edge21" class="edge">
<title>dir_4ba2a7935bd4322f95edc73c65047dcd&#45;&gt;dir_36505a9bfb81f81ed7a4e794d4cf597e</title>
<path fill="none" stroke="black" d="M298.44,-91.85C305.56,-80.73 316.41,-67.04 330,-60 375.51,-36.42 525.99,-34.21 596.69,-34.53"/>
<polygon fill="black" stroke="black" points="596.9,-38.03 606.92,-34.6 596.95,-31.03 596.9,-38.03"/>
<g id="a_edge21&#45;headlabel"><a xlink:href="dir_000009_000041.html" target="_top" xlink:title="7">
<text text-anchor="middle" x="593.29" y="-38.35" font-family="Helvetica,sans-Serif" font-size="10.00">7</text>
</a>
</g>
</g>
<!-- dir_e24c925cb0f035293ddb71c6b0ba176b&#45;&gt;dir_36505a9bfb81f81ed7a4e794d4cf597e -->
<g id="edge22" class="edge">
<title>dir_e24c925cb0f035293ddb71c6b0ba176b&#45;&gt;dir_36505a9bfb81f81ed7a4e794d4cf597e</title>
<path fill="none" stroke="black" d="M382.81,-91.52C389.31,-80.55 399.23,-67.17 412,-60 442.74,-42.74 541.76,-37.39 596.59,-35.73"/>
<polygon fill="black" stroke="black" points="596.72,-39.23 606.62,-35.46 596.52,-32.23 596.72,-39.23"/>
<g id="a_edge22&#45;headlabel"><a xlink:href="dir_000043_000041.html" target="_top" xlink:title="2">
<text text-anchor="middle" x="593.2" y="-39.67" font-family="Helvetica,sans-Serif" font-size="10.00">2</text>
</a>
</g>
</g>
<!-- dir_90f42758d50f65f2d058c718b5106f64 -->
<g id="node13" class="node">
<title>dir_90f42758d50f65f2d058c718b5106f64</title>
<g id="a_node13"><a xlink:href="dir_90f42758d50f65f2d058c718b5106f64.html" target="_top" xlink:title="muesli">
<polygon fill="#c1cde4" stroke="#404040" points="240,-200 186,-200 186,-164 240,-164 240,-200"/>
<text text-anchor="middle" x="213" y="-179.5" font-family="Helvetica,sans-Serif" font-size="10.00">muesli</text>
</a>
</g>
</g>
<!-- dir_f35896bbba8936d1d4d1ed6b76b80319&#45;&gt;dir_36505a9bfb81f81ed7a4e794d4cf597e -->
<g id="edge24" class="edge">
<title>dir_f35896bbba8936d1d4d1ed6b76b80319&#45;&gt;dir_36505a9bfb81f81ed7a4e794d4cf597e</title>
<path fill="none" stroke="black" d="M425.03,-308.85C426.36,-308.56 427.69,-308.27 429,-308 483.95,-296.56 642.25,-314.42 679,-272 709.85,-236.39 702.89,-100.6 679,-60 676.64,-55.99 673.38,-52.58 669.69,-49.69"/>
<polygon fill="black" stroke="black" points="671.38,-46.62 661.08,-44.16 667.6,-52.51 671.38,-46.62"/>
<g id="a_edge24&#45;headlabel"><a xlink:href="dir_000039_000041.html" target="_top" xlink:title="6">
<text text-anchor="middle" x="675.94" y="-43.67" font-family="Helvetica,sans-Serif" font-size="10.00">6</text>
</a>
</g>
</g>
<!-- dir_fcb4e2ceb6b2f2f2f5fb5f66d2cf2356 -->
<g id="node15" class="node">
<title>dir_fcb4e2ceb6b2f2f2f5fb5f66d2cf2356</title>
<g id="a_node15"><a xlink:href="dir_fcb4e2ceb6b2f2f2f5fb5f66d2cf2356.html" target="_top" xlink:title="easfunctions">
<polygon fill="#c1cde4" stroke="#404040" points="334.5,-272 255.5,-272 255.5,-236 334.5,-236 334.5,-272"/>
<text text-anchor="middle" x="295" y="-251.5" font-family="Helvetica,sans-Serif" font-size="10.00">easfunctions</text>
</a>
</g>
</g>
<!-- dir_f35896bbba8936d1d4d1ed6b76b80319&#45;&gt;dir_fcb4e2ceb6b2f2f2f5fb5f66d2cf2356 -->
<g id="edge25" class="edge">
<title>dir_f35896bbba8936d1d4d1ed6b76b80319&#45;&gt;dir_fcb4e2ceb6b2f2f2f5fb5f66d2cf2356</title>
<path fill="none" stroke="black" d="M349.2,-307.7C340.4,-299.14 329.62,-288.66 320,-279.3"/>
<polygon fill="black" stroke="black" points="322.2,-276.57 312.59,-272.1 317.32,-281.58 322.2,-276.57"/>
<g id="a_edge25&#45;headlabel"><a xlink:href="dir_000039_000014.html" target="_top" xlink:title="4">
<text text-anchor="middle" x="326.76" y="-274.54" font-family="Helvetica,sans-Serif" font-size="10.00">4</text>
</a>
</g>
</g>
<!-- dir_32fee6690055e5dca6b4c9136006c5b5 -->
<g id="node16" class="node">
<title>dir_32fee6690055e5dca6b4c9136006c5b5</title>
<g id="a_node16"><a xlink:href="dir_32fee6690055e5dca6b4c9136006c5b5.html" target="_top" xlink:title="easvariants">
<polygon fill="#c1cde4" stroke="#404040" points="427,-272 353,-272 353,-236 427,-236 427,-272"/>
<text text-anchor="middle" x="390" y="-251.5" font-family="Helvetica,sans-Serif" font-size="10.00">easvariants</text>
</a>
</g>
</g>
<!-- dir_f35896bbba8936d1d4d1ed6b76b80319&#45;&gt;dir_32fee6690055e5dca6b4c9136006c5b5 -->
<g id="edge23" class="edge">
<title>dir_f35896bbba8936d1d4d1ed6b76b80319&#45;&gt;dir_32fee6690055e5dca6b4c9136006c5b5</title>
<path fill="none" stroke="black" d="M372.69,-307.7C375.25,-299.9 378.33,-290.51 381.18,-281.83"/>
<polygon fill="black" stroke="black" points="384.58,-282.7 384.38,-272.1 377.93,-280.51 384.58,-282.7"/>
<g id="a_edge23&#45;headlabel"><a xlink:href="dir_000039_000015.html" target="_top" xlink:title="2">
<text text-anchor="middle" x="386.16" y="-284.5" font-family="Helvetica,sans-Serif" font-size="10.00">2</text>
</a>
</g>
</g>
<!-- dir_fcb4e2ceb6b2f2f2f5fb5f66d2cf2356&#45;&gt;dir_36505a9bfb81f81ed7a4e794d4cf597e -->
<g id="edge26" class="edge">
<title>dir_fcb4e2ceb6b2f2f2f5fb5f66d2cf2356&#45;&gt;dir_36505a9bfb81f81ed7a4e794d4cf597e</title>
<path fill="none" stroke="black" d="M323.46,-235.92C330,-232.73 337.07,-229.83 344,-228 373.57,-220.21 596.96,-237.2 619,-216 640.36,-195.46 638.44,-107.53 635.91,-62.23"/>
<polygon fill="black" stroke="black" points="639.4,-61.98 635.3,-52.21 632.42,-62.4 639.4,-61.98"/>
<g id="a_edge26&#45;headlabel"><a xlink:href="dir_000014_000041.html" target="_top" xlink:title="2">
<text text-anchor="middle" x="642.46" y="-62.89" font-family="Helvetica,sans-Serif" font-size="10.00">2</text>
</a>
</g>
</g>
<!-- dir_32fee6690055e5dca6b4c9136006c5b5&#45;&gt;dir_36505a9bfb81f81ed7a4e794d4cf597e -->
<g id="edge27" class="edge">
<title>dir_32fee6690055e5dca6b4c9136006c5b5&#45;&gt;dir_36505a9bfb81f81ed7a4e794d4cf597e</title>
<path fill="none" stroke="black" d="M413.77,-235.85C419.2,-232.7 425.11,-229.84 431,-228 453.1,-221.1 623.11,-232.83 639,-216 678.11,-174.57 659.34,-101.09 645.04,-61.7"/>
<polygon fill="black" stroke="black" points="648.27,-60.34 641.45,-52.23 641.72,-62.83 648.27,-60.34"/>
<g id="a_edge27&#45;headlabel"><a xlink:href="dir_000015_000041.html" target="_top" xlink:title="3">
<text text-anchor="middle" x="652.2" y="-60.2" font-family="Helvetica,sans-Serif" font-size="10.00">3</text>
</a>
</g>
</g>
</g>
</svg>
