<?xml version="1.0" encoding="UTF-8" standalone="no"?>
<!DOCTYPE svg PUBLIC "-//W3C//DTD SVG 1.1//EN"
 "http://www.w3.org/Graphics/SVG/1.1/DTD/svg11.dtd">
<!-- Generated by graphviz version 2.43.0 (0)
 -->
<!-- Title: ikarus Pages: 1 -->
<svg width="306pt" height="231pt"
 viewBox="0.00 0.00 306.00 231.00" xmlns="http://www.w3.org/2000/svg" xmlns:xlink="http://www.w3.org/1999/xlink">
<g id="graph0" class="graph" transform="scale(1 1) rotate(0) translate(4 227)">
<title>ikarus</title>
<polygon fill="white" stroke="transparent" points="-4,4 -4,-227 302,-227 302,4 -4,4"/>
<g id="clust1" class="cluster">
<title>clusterdir_7837fde3ab9c1fb2fc5be7b717af8d79</title>
<g id="a_clust1"><a xlink:href="dir_7837fde3ab9c1fb2fc5be7b717af8d79.html" target="_top" xlink:title="python">
<polygon fill="#edf0f7" stroke="#404040" stroke-dasharray="5,2" points="8,-56 8,-215 290,-215 290,-56 8,-56"/>
<text text-anchor="middle" x="149" y="-203" font-family="Helvetica,sans-Serif" font-size="10.00">python</text>
</a>
</g>
</g>
<g id="clust2" class="cluster">
<title>clusterdir_73badfddb58208682f2caf3b249febfe</title>
<g id="a_clust2"><a xlink:href="dir_73badfddb58208682f2caf3b249febfe.html" target="_top">
<polygon fill="#edf0f7" stroke="#404040" stroke-width="2" points="16,-64 16,-188 282,-188 282,-64 16,-64"/>
</a>
</g>
</g>
<!-- dir_73badfddb58208682f2caf3b249febfe -->
<g id="node1" class="node">
<title>dir_73badfddb58208682f2caf3b249febfe</title>
<text text-anchor="middle" x="247" y="-159.5" font-family="Helvetica,sans-Serif" font-size="10.00">ikarus</text>
</g>
<!-- dir_45c099bf920096a3a8905b6350a6be85 -->
<g id="node4" class="node">
<title>dir_45c099bf920096a3a8905b6350a6be85</title>
<g id="a_node4"><a xlink:href="dir_45c099bf920096a3a8905b6350a6be85.html" target="_top" xlink:title="io">
<polygon fill="#dfe5f1" stroke="#404040" points="120,-108 66,-108 66,-72 120,-72 120,-108"/>
<text text-anchor="middle" x="93" y="-87.5" font-family="Helvetica,sans-Serif" font-size="10.00">io</text>
</a>
</g>
</g>
<!-- dir_73badfddb58208682f2caf3b249febfe&#45;&gt;dir_45c099bf920096a3a8905b6350a6be85 -->
<g id="edge1" class="edge">
<title>dir_73badfddb58208682f2caf3b249febfe&#45;&gt;dir_45c099bf920096a3a8905b6350a6be85</title>
<path fill="none" stroke="black" d="M219.9,-148.12C216.9,-146.72 213.89,-145.32 211,-144 175.19,-127.59 165.9,-124.22 130,-108 129.8,-107.91 129.6,-107.82 129.39,-107.73"/>
<polygon fill="black" stroke="black" points="130.61,-104.43 120.06,-103.48 127.71,-110.81 130.61,-104.43"/>
<g id="a_edge1&#45;headlabel"><a xlink:href="dir_000018_000021.html" target="_top" xlink:title="1">
<text text-anchor="middle" x="135.06" y="-100.84" font-family="Helvetica,sans-Serif" font-size="10.00">1</text>
</a>
</g>
</g>
<!-- dir_f76a953843f5286ce5302f8a81053dae -->
<g id="node5" class="node">
<title>dir_f76a953843f5286ce5302f8a81053dae</title>
<g id="a_node5"><a xlink:href="dir_f76a953843f5286ce5302f8a81053dae.html" target="_top" xlink:title="materials">
<polygon fill="#dfe5f1" stroke="#404040" points="201.5,-108 138.5,-108 138.5,-72 201.5,-72 201.5,-108"/>
<text text-anchor="middle" x="170" y="-87.5" font-family="Helvetica,sans-Serif" font-size="10.00">materials</text>
</a>
</g>
</g>
<!-- dir_73badfddb58208682f2caf3b249febfe&#45;&gt;dir_f76a953843f5286ce5302f8a81053dae -->
<g id="edge4" class="edge">
<title>dir_73badfddb58208682f2caf3b249febfe&#45;&gt;dir_f76a953843f5286ce5302f8a81053dae</title>
<path fill="none" stroke="black" d="M227.97,-143.7C218.46,-135.05 206.79,-124.45 196.43,-115.03"/>
<polygon fill="black" stroke="black" points="198.57,-112.24 188.81,-108.1 193.86,-117.42 198.57,-112.24"/>
<g id="a_edge4&#45;headlabel"><a xlink:href="dir_000018_000027.html" target="_top" xlink:title="1">
<text text-anchor="middle" x="203.14" y="-110.06" font-family="Helvetica,sans-Serif" font-size="10.00">1</text>
</a>
</g>
</g>
<!-- dir_86832cf5e78640a96768d75c38062b36 -->
<g id="node6" class="node">
<title>dir_86832cf5e78640a96768d75c38062b36</title>
<g id="a_node6"><a xlink:href="dir_86832cf5e78640a96768d75c38062b36.html" target="_top" xlink:title="utils">
<polygon fill="#dfe5f1" stroke="#404040" points="274,-108 220,-108 220,-72 274,-72 274,-108"/>
<text text-anchor="middle" x="247" y="-87.5" font-family="Helvetica,sans-Serif" font-size="10.00">utils</text>
</a>
</g>
</g>
<!-- dir_73badfddb58208682f2caf3b249febfe&#45;&gt;dir_86832cf5e78640a96768d75c38062b36 -->
<g id="edge3" class="edge">
<title>dir_73badfddb58208682f2caf3b249febfe&#45;&gt;dir_86832cf5e78640a96768d75c38062b36</title>
<path fill="none" stroke="black" d="M247,-143.7C247,-135.98 247,-126.71 247,-118.11"/>
<polygon fill="black" stroke="black" points="250.5,-118.1 247,-108.1 243.5,-118.1 250.5,-118.1"/>
<g id="a_edge3&#45;headlabel"><a xlink:href="dir_000018_000036.html" target="_top" xlink:title="1">
<text text-anchor="middle" x="253.34" y="-119.2" font-family="Helvetica,sans-Serif" font-size="10.00">1</text>
</a>
</g>
</g>
<!-- dir_5bec9ec6c6b8ab3f2f9d60d2ff21ed81 -->
<g id="node7" class="node">
<title>dir_5bec9ec6c6b8ab3f2f9d60d2ff21ed81</title>
<g id="a_node7"><a xlink:href="dir_5bec9ec6c6b8ab3f2f9d60d2ff21ed81.html" target="_top" xlink:title="ikarus">
<polygon fill="none" stroke="red" points="235,-36 181,-36 181,0 235,0 235,-36"/>
<text text-anchor="middle" x="208" y="-15.5" font-family="Helvetica,sans-Serif" font-size="10.00">ikarus</text>
</a>
</g>
</g>
<!-- dir_73badfddb58208682f2caf3b249febfe&#45;&gt;dir_5bec9ec6c6b8ab3f2f9d60d2ff21ed81 -->
<g id="edge2" class="edge">
<title>dir_73badfddb58208682f2caf3b249febfe&#45;&gt;dir_5bec9ec6c6b8ab3f2f9d60d2ff21ed81</title>
<path fill="none" stroke="black" d="M262.61,-143.77C270.37,-134.03 278.95,-121.18 283,-108 289.79,-85.91 295.2,-75.63 283,-56 274.53,-42.38 259.4,-33.62 244.93,-28.07"/>
<polygon fill="black" stroke="black" points="245.71,-24.63 235.12,-24.71 243.45,-31.26 245.71,-24.63"/>
<g id="a_edge2&#45;headlabel"><a xlink:href="dir_000018_000017.html" target="_top" xlink:title="10">
<text text-anchor="middle" x="250.03" y="-20.61" font-family="Helvetica,sans-Serif" font-size="10.00">10</text>
</a>
</g>
</g>
<!-- dir_ce77774bb77a77a8921d47dc6ef9535b -->
<g id="node2" class="node">
<title>dir_ce77774bb77a77a8921d47dc6ef9535b</title>
<g id="a_node2"><a xlink:href="dir_ce77774bb77a77a8921d47dc6ef9535b.html" target="_top" xlink:title="assembler">
<polygon fill="#dfe5f1" stroke="#404040" points="202,-180 134,-180 134,-144 202,-144 202,-180"/>
<text text-anchor="middle" x="168" y="-159.5" font-family="Helvetica,sans-Serif" font-size="10.00">assembler</text>
</a>
</g>
</g>
<!-- dir_2c5a1e15fafdf1e3d4a509c62c23a920 -->
<g id="node3" class="node">
<title>dir_2c5a1e15fafdf1e3d4a509c62c23a920</title>
<g id="a_node3"><a xlink:href="dir_2c5a1e15fafdf1e3d4a509c62c23a920.html" target="_top" xlink:title="finite_elements">
<polygon fill="#dfe5f1" stroke="#404040" points="116,-180 24,-180 24,-144 116,-144 116,-180"/>
<text text-anchor="middle" x="70" y="-159.5" font-family="Helvetica,sans-Serif" font-size="10.00">finite_elements</text>
</a>
</g>
</g>
<!-- dir_45c099bf920096a3a8905b6350a6be85&#45;&gt;dir_5bec9ec6c6b8ab3f2f9d60d2ff21ed81 -->
<g id="edge5" class="edge">
<title>dir_45c099bf920096a3a8905b6350a6be85&#45;&gt;dir_5bec9ec6c6b8ab3f2f9d60d2ff21ed81</title>
<path fill="none" stroke="black" d="M110.22,-71.79C116.19,-66.35 123.11,-60.57 130,-56 142.87,-47.47 158,-39.81 171.51,-33.71"/>
<polygon fill="black" stroke="black" points="173.24,-36.77 180.99,-29.55 170.43,-30.36 173.24,-36.77"/>
<g id="a_edge5&#45;headlabel"><a xlink:href="dir_000021_000017.html" target="_top" xlink:title="1">
<text text-anchor="middle" x="171.09" y="-38.31" font-family="Helvetica,sans-Serif" font-size="10.00">1</text>
</a>
</g>
</g>
<!-- dir_f76a953843f5286ce5302f8a81053dae&#45;&gt;dir_5bec9ec6c6b8ab3f2f9d60d2ff21ed81 -->
<g id="edge6" class="edge">
<title>dir_f76a953843f5286ce5302f8a81053dae&#45;&gt;dir_5bec9ec6c6b8ab3f2f9d60d2ff21ed81</title>
<path fill="none" stroke="black" d="M179.39,-71.7C183.76,-63.64 189.06,-53.89 193.9,-44.98"/>
<polygon fill="black" stroke="black" points="197.02,-46.56 198.71,-36.1 190.87,-43.22 197.02,-46.56"/>
<g id="a_edge6&#45;headlabel"><a xlink:href="dir_000027_000017.html" target="_top" xlink:title="3">
<text text-anchor="middle" x="197.8" y="-48.58" font-family="Helvetica,sans-Serif" font-size="10.00">3</text>
</a>
</g>
</g>
<!-- dir_86832cf5e78640a96768d75c38062b36&#45;&gt;dir_5bec9ec6c6b8ab3f2f9d60d2ff21ed81 -->
<g id="edge7" class="edge">
<title>dir_86832cf5e78640a96768d75c38062b36&#45;&gt;dir_5bec9ec6c6b8ab3f2f9d60d2ff21ed81</title>
<path fill="none" stroke="black" d="M237.36,-71.7C232.87,-63.64 227.44,-53.89 222.48,-44.98"/>
<polygon fill="black" stroke="black" points="225.45,-43.14 217.53,-36.1 219.34,-46.54 225.45,-43.14"/>
<g id="a_edge7&#45;headlabel"><a xlink:href="dir_000036_000017.html" target="_top" xlink:title="1">
<text text-anchor="middle" x="229.68" y="-42.39" font-family="Helvetica,sans-Serif" font-size="10.00">1</text>
</a>
</g>
</g>
</g>
</svg>
